<?xml version="1.0" encoding="UTF-8"?>
<svg version="1.1" xmlns="http://www.w3.org/2000/svg" width="536" height="228">
<path d="M0 0 C7.55859343 5.90515112 12.71494538 11.8830582 14.203125 21.609375 C14.14267769 29.7546495 7.43810889 38.90173486 1.875 44.46484375 C-0.5390625 44.83203125 -0.5390625 44.83203125 -3.125 44.46484375 C-4.8984375 42.84765625 -4.8984375 42.84765625 -6.5 40.58984375 C-7.38945312 39.3678125 -7.38945312 39.3678125 -8.296875 38.12109375 C-9.52537288 36.33609684 -10.74400448 34.54427299 -11.953125 32.74609375 C-12.54609375 31.86953125 -13.1390625 30.99296875 -13.75 30.08984375 C-14.27851562 29.27773437 -14.80703125 28.465625 -15.3515625 27.62890625 C-18.19337567 24.16114304 -21.14799684 22.72292006 -25.4375 21.58984375 C-29.94810464 21.4369419 -33.1851557 22.29481664 -37.125 24.46484375 C-39.59055862 26.93040237 -40.5894249 29.04564806 -41.125 32.46484375 C-39.28083716 39.97127565 -34.8646437 46.3642889 -30.53125 52.63671875 C-29.90271118 53.56276917 -29.27417236 54.48881958 -28.62658691 55.44293213 C-26.6349232 58.37306027 -24.63030627 61.29404008 -22.625 64.21484375 C-21.27906764 66.18950445 -19.93400746 68.16475994 -18.58984375 70.140625 C-15.59255115 74.54409047 -12.58827983 78.94264493 -9.57128906 83.3326416 C-8.30383186 85.20119958 -7.08113798 87.09097749 -5.86523438 88.99316406 C-4.31776483 91.61369106 -4.31776483 91.61369106 -1.6875 92.65234375 C2.14407643 92.3719845 3.33964611 90.25091249 5.875 87.46484375 C7.14241781 85.72460002 8.35679201 83.94467165 9.51953125 82.1328125 C10.18879639 81.09809814 10.85806152 80.06338379 11.54760742 78.99731445 C12.25377197 77.89347412 12.95993652 76.78963379 13.6875 75.65234375 C14.81367511 73.9095208 15.94240959 72.16837226 17.07118225 70.42723083 C17.84476243 69.23363152 18.6176552 68.03958642 19.38987732 66.84510803 C23.40834373 60.62976848 27.47336405 54.44643582 31.5625 48.27734375 C32.20872314 47.29338623 32.85494629 46.30942871 33.52075195 45.2956543 C44.90701668 28.14102414 44.90701668 28.14102414 54.69238281 25.78710938 C57.95396148 25.18016336 61.21526153 24.67973713 64.5 24.21484375 C66.17835938 23.95574219 66.17835938 23.95574219 67.890625 23.69140625 C72.59637896 22.98385852 77.10803787 22.36274887 81.875 22.46484375 C82.205 23.45484375 82.535 24.44484375 82.875 25.46484375 C81.45955218 28.1973085 79.98672075 30.72305187 78.33984375 33.3125 C77.84532211 34.10479507 77.35080048 34.89709015 76.84129333 35.71339417 C70.61528909 45.60269463 64.02099885 55.24934316 57.4375 64.90234375 C49.27290819 76.88453465 41.2465912 88.91688732 33.55249023 101.20727539 C30.01022825 106.86053563 26.33616972 112.42099763 22.625 117.96484375 C21.66207031 119.41503906 21.66207031 119.41503906 20.6796875 120.89453125 C17.39936394 125.80842959 14.06187554 130.6791249 10.640625 135.49609375 C10.01446289 136.37845703 9.38830078 137.26082031 8.74316406 138.16992188 C5.91979259 141.63825588 4.00766863 143.27250379 -0.4375 144.02734375 C-5.95356236 143.18591051 -9.21323259 139.98601773 -12.54956055 135.58618164 C-14.02794506 133.32717123 -15.42573005 131.03125574 -16.8125 128.71484375 C-18.02365384 126.75341914 -19.24033297 124.79540114 -20.4609375 122.83984375 C-20.80395401 122.28999817 -21.14697052 121.74015259 -21.50038147 121.17364502 C-26.52769365 113.16510243 -31.82849142 105.33400034 -37.08834839 97.47729492 C-40.15031488 92.90301725 -43.20556425 88.32425562 -46.26171875 83.74609375 C-46.85310135 82.86038696 -47.44448395 81.97468018 -48.05378723 81.06213379 C-49.74446825 78.52988837 -51.43484131 75.99743783 -53.125 73.46484375 C-53.61808655 72.7260498 -54.1111731 71.98725586 -54.61920166 71.22607422 C-57.14429195 67.4404657 -59.66265737 63.65059886 -62.1680603 59.85192871 C-63.21642233 58.26565019 -64.27179531 56.68401208 -65.32739258 55.10253906 C-65.94380615 54.16506836 -66.56021973 53.22759766 -67.1953125 52.26171875 C-67.71883301 51.47120117 -68.24235352 50.68068359 -68.78173828 49.86621094 C-73.35271468 41.69461445 -73.35529452 32.13430228 -71 23.21484375 C-69.21286438 18.03802368 -66.41841193 13.8046846 -63.125 9.46484375 C-62.68414062 8.84738281 -62.24328125 8.22992188 -61.7890625 7.59375 C-47.47775409 -10.9778612 -18.65118235 -12.78383123 0 0 Z " fill="#E8560C" transform="translate(91.125,39.53515625)"/>
<path d="M0 0 C5.56875 -0.0825 11.1375 -0.165 16.875 -0.25 C18.61120605 -0.28641602 20.34741211 -0.32283203 22.13623047 -0.36035156 C39.72536133 -0.57636192 39.72536133 -0.57636192 46.62841797 5.4128418 C51.71035294 11.06194893 52.45140807 16.67118246 52.31640625 23.98828125 C51.70707574 29.78820504 49.55288129 33.52106543 45.375 37.5 C43 39 43 39 41 39 C41.86383464 40.72766927 42.72771347 42.45531646 43.59179688 44.18286133 C44.32434856 45.64845437 45.05611517 47.11444006 45.78710938 48.58081055 C47.38867846 51.79141606 48.99783208 54.9958032 50.64453125 58.18359375 C51.09183594 59.05113281 51.53914063 59.91867188 52 60.8125 C52.5878125 61.93591797 52.5878125 61.93591797 53.1875 63.08203125 C54 65 54 65 54 68 C48.39 68 42.78 68 37 68 C35.16183267 64.37737801 33.3292831 60.75210432 31.5 57.125 C30.97535156 56.09246094 30.45070313 55.05992188 29.91015625 53.99609375 C29.16572266 52.51689453 29.16572266 52.51689453 28.40625 51.0078125 C27.94541016 50.09660645 27.48457031 49.18540039 27.00976562 48.24658203 C26 46 26 46 26 44 C22.7 44 19.4 44 16 44 C16 51.92 16 59.84 16 68 C10.72 68 5.44 68 0 68 C0 45.56 0 23.12 0 0 Z M16 13 C16 18.94 16 24.88 16 31 C19.3103125 31.0928125 19.3103125 31.0928125 22.6875 31.1875 C23.92886719 31.22230469 25.17023438 31.25710937 26.44921875 31.29296875 C30.21666932 30.98212299 32.02794917 30.2772857 35 28 C36.57898053 24.84203893 36.81928171 21.39329364 36 18 C34.04748348 15.10387508 34.04748348 15.10387508 31 13 C28.11628549 12.62646185 26.01710038 12.51287147 23.1875 12.6875 C20.815625 12.790625 18.44375 12.89375 16 13 Z " fill="#E65710" transform="translate(400,63)"/>
<path d="M0 0 C5.28 0 10.56 0 16 0 C16.50861572 1.38485596 17.01723145 2.76971191 17.54125977 4.1965332 C19.46271323 9.42817655 21.3842934 14.65977334 23.3059082 19.89135742 C24.13113706 22.13808989 24.95633341 24.3848343 25.78149414 26.6315918 C30.84694767 40.42379018 35.91803026 54.21387805 41 68 C35.39 68 29.78 68 24 68 C20 58.375 20 58.375 20 55 C12.08 55 4.16 55 -4 55 C-4.66 57.97 -5.32 60.94 -6 64 C-6.66 65.32 -7.32 66.64 -8 68 C-13.28 68 -18.56 68 -24 68 C-23.34431961 64.06591767 -22.87130357 61.24029146 -21.52880859 57.6730957 C-21.08231461 56.47442619 -21.08231461 56.47442619 -20.62680054 55.25154114 C-20.30394073 54.40154037 -19.98108093 53.55153961 -19.6484375 52.67578125 C-19.31131744 51.7749028 -18.97419739 50.87402435 -18.62686157 49.94584656 C-17.54800626 47.06612034 -16.46172882 44.18926302 -15.375 41.3125 C-14.66745658 39.4292288 -13.96042082 37.54576679 -13.25390625 35.66210938 C-12.20437038 32.86428832 -11.15440279 30.06663795 -10.10223389 27.26980591 C-6.6900074 18.19631726 -3.33829474 9.10090578 0 0 Z M7 21 C5.99534271 24.12352227 4.99707073 27.24904853 4 30.375 C3.57074219 31.70917969 3.57074219 31.70917969 3.1328125 33.0703125 C2.86210937 33.92109375 2.59140625 34.771875 2.3125 35.6484375 C2.06113281 36.43395996 1.80976563 37.21948242 1.55078125 38.02880859 C0.9102974 39.97992105 0.9102974 39.97992105 1 42 C5.62 42 10.24 42 15 42 C13.13825211 34.73918325 10.94513033 27.89190398 8 21 C7.67 21 7.34 21 7 21 Z " fill="#E7560E" transform="translate(353,63)"/>
<path d="M0 0 C15.51 0 31.02 0 47 0 C47 4.29 47 8.58 47 13 C36.77 13 26.54 13 16 13 C16 17.62 16 22.24 16 27 C24.58 27 33.16 27 42 27 C42 30.96 42 34.92 42 39 C33.42 39 24.84 39 16 39 C16 44.61 16 50.22 16 56 C26.23 56 36.46 56 47 56 C47 59.96 47 63.92 47 68 C31.49 68 15.98 68 0 68 C0 45.56 0 23.12 0 0 Z " fill="#E65810" transform="translate(462,63)"/>
<path d="M0 0 C0.70036377 0.00612305 1.40072754 0.01224609 2.12231445 0.01855469 C7.91402069 0.19294306 12.26655196 1.34280926 17.125 4.4375 C18.48625 5.241875 18.48625 5.241875 19.875 6.0625 C25.24316269 11.72889395 27.03536984 17.81008891 28.125 25.4375 C22.845 25.4375 17.565 25.4375 12.125 25.4375 C11.47395833 23.45182292 10.82291667 21.46614583 10.171875 19.48046875 C8.85522143 16.91102913 7.62004533 15.87780148 5.125 14.4375 C1.72081431 13.77326865 -1.45985569 13.85078153 -4.875 14.4375 C-9.19051413 17.49432251 -10.58095718 20.41390144 -11.875 25.4375 C-12.18100167 28.92054041 -12.19974518 32.38022658 -12.1875 35.875 C-12.20361328 36.79087891 -12.21972656 37.70675781 -12.23632812 38.65039062 C-12.24100821 45.16974449 -11.76334197 50.47694948 -7 55.359375 C-4.43926143 56.65857324 -2.73484332 56.77469035 0.125 56.6875 C0.970625 56.67203125 1.81625 56.6565625 2.6875 56.640625 C5.99591154 56.40744543 5.99591154 56.40744543 9.125 55.4375 C10.2625213 53.35715706 10.2625213 53.35715706 10.875 50.875 C11.2875 49.410625 11.7 47.94625 12.125 46.4375 C17.405 46.4375 22.685 46.4375 28.125 46.4375 C26.96022567 54.8238752 24.95657218 60.70232305 18.09375 66.0078125 C9.65657747 71.51716024 -0.70499091 71.79659128 -10.4921875 69.94140625 C-18.05136327 67.33834378 -21.64368259 63.29785911 -25.1875 56.4375 C-30.35661959 45.80078147 -30.7930572 31.125815 -27.75 19.6875 C-24.77971528 11.75740023 -19.25552264 5.61965924 -11.70703125 1.859375 C-7.8491922 0.24712123 -4.15074562 -0.06200367 0 0 Z " fill="#E65711" transform="translate(298.875,61.5625)"/>
<path d="M0 0 C5.61 0 11.22 0 17 0 C20.375 7.875 20.375 7.875 21.3503418 11.28295898 C21.57034348 12.04321884 21.79034515 12.8034787 22.01701355 13.58677673 C22.35470512 14.77938866 22.35470512 14.77938866 22.69921875 15.99609375 C22.9391304 16.82963882 23.17904205 17.6631839 23.42622375 18.52198792 C24.18424557 21.15929116 24.9359674 23.79834112 25.6875 26.4375 C26.20335923 28.2364477 26.71963118 30.0352771 27.23632812 31.83398438 C28.49566177 36.22130284 29.7493523 40.610198 31 45 C32.73792803 42.39310796 33.47790219 40.8281222 34.31274414 37.91162109 C34.54961441 37.09422455 34.78648468 36.276828 35.03053284 35.43466187 C35.27955856 34.55645782 35.52858429 33.67825378 35.78515625 32.7734375 C36.04630722 31.87001617 36.30745819 30.96659485 36.57652283 30.03579712 C37.41010777 27.15025683 38.23682737 24.26281343 39.0625 21.375 C39.89241459 18.48025023 40.72383157 15.58596358 41.55918884 12.69277954 C42.07894244 10.89196355 42.59542926 9.09020102 43.1084137 7.28744507 C43.34213181 6.47635284 43.57584991 5.66526062 43.81665039 4.82958984 C44.02157608 4.11249847 44.22650177 3.3954071 44.43763733 2.65658569 C45 1 45 1 46 0 C48.86267567 -0.07325168 51.700719 -0.09238205 54.5625 -0.0625 C55.36880859 -0.05798828 56.17511719 -0.05347656 57.00585938 -0.04882812 C59.00393756 -0.03700518 61.00197783 -0.01906914 63 0 C62.32129099 5.39317647 60.67138737 10.22906101 58.8671875 15.32421875 C58.55226349 16.2250972 58.23733948 17.12597565 57.91287231 18.05415344 C57.24432557 19.96374142 56.57344427 21.87251345 55.90039062 23.78051758 C54.89483086 26.63127952 53.89594299 29.48430181 52.8984375 32.33789062 C48.71771002 44.26978475 44.40831311 56.15040631 40 68 C34.39 68 28.78 68 23 68 C10.43626258 32.33710273 10.43626258 32.33710273 4.8414917 16.19735718 C4.19532647 14.33505654 3.54616763 12.47379547 2.89697266 10.61254883 C2.51202637 9.49904053 2.12708008 8.38553223 1.73046875 7.23828125 C1.39426514 6.26930908 1.05806152 5.30033691 0.71166992 4.30200195 C0 2 0 2 0 0 Z " fill="#E55710" transform="translate(205,63)"/>
<path d="M0 0 C3.9476829 2.05608485 5.91657813 4.68702715 7.49609375 8.875 C8.82994949 14.49994205 8.72097898 20.01730781 6.75 25.4375 C4.21091331 29.15544837 2.32669372 31.55776876 -2 33 C-7.23503836 33.39509723 -10.59928724 32.93380851 -15 30 C-19.4836093 24.3046044 -20.47023769 20.17112473 -20 13 C-19.05758397 8.27194668 -17.900885 4.92340712 -14.5 1.4375 C-9.58548073 -0.58096327 -5.2396653 -0.77595043 0 0 Z M-8 5 C-11.65562339 8.87278913 -12.52972221 11.25664857 -12.4375 16.5625 C-12.43621094 17.67753906 -12.43492187 18.79257813 -12.43359375 19.94140625 C-11.96492085 23.24745022 -11.37029895 24.67989562 -9 27 C-5.78585622 27.4687293 -3.90495805 27.624109 -1.1875 25.75 C1.59226347 21.65350646 1.49886766 16.81314908 1 12 C0.06636718 8.54603899 0.06636718 8.54603899 -2 6 C-5.08961458 5.02525184 -5.08961458 5.02525184 -8 5 Z " fill="#337B74" transform="translate(347,151)"/>
<path d="M0 0 C14 0 14 0 20 3 C24.76295278 8.55146838 24.69777873 13.35350123 24.53125 20.41015625 C23.8846307 24.77959108 22.67516928 26.91469561 19.5078125 29.8984375 C13.18351239 34.5187811 10.94954945 32 0 32 C0 21.44 0 10.88 0 0 Z M7 5 C7 12.26 7 19.52 7 27 C12.68662848 27.59319904 12.68662848 27.59319904 15.375 25.25 C17.82037629 20.35924743 17.82018149 15.37181932 17 10 C16.04717488 7.58894146 16.04717488 7.58894146 14 6 C11.69 5.67 9.38 5.34 7 5 Z " fill="#367B76" transform="translate(262,151)"/>
<path d="M0 0 C1.4540625 0.0309375 1.4540625 0.0309375 2.9375 0.0625 C5.93992385 6.61792678 8.62970997 13.25974959 11.1875 20 C11.55101562 20.94423828 11.91453125 21.88847656 12.2890625 22.86132812 C12.63195312 23.76173828 12.97484375 24.66214844 13.328125 25.58984375 C13.63782227 26.40187256 13.94751953 27.21390137 14.26660156 28.05053711 C14.9375 30.0625 14.9375 30.0625 14.9375 32.0625 C12.2975 32.0625 9.6575 32.0625 6.9375 32.0625 C6.2775 30.0825 5.6175 28.1025 4.9375 26.0625 C1.6375 26.0625 -1.6625 26.0625 -5.0625 26.0625 C-5.7225 28.0425 -6.3825 30.0225 -7.0625 32.0625 C-9.7025 32.0625 -12.3425 32.0625 -15.0625 32.0625 C-13.02638077 24.89913306 -10.61448394 17.94741069 -7.9375 11 C-7.57785156 10.05189453 -7.21820313 9.10378906 -6.84765625 8.12695312 C-3.76611503 0.07685949 -3.76611503 0.07685949 0 0 Z M-1.0625 11.0625 C-1.7225 14.0325 -2.3825 17.0025 -3.0625 20.0625 C-1.0825 20.0625 0.8975 20.0625 2.9375 20.0625 C2.44101065 15.59409589 2.24762244 14.37262244 -1.0625 11.0625 Z " fill="#2A7E77" transform="translate(411.0625,150.9375)"/>
<path d="M0 0 C2.31 0 4.62 0 7 0 C8.5729434 4.07269123 10.13933576 8.14782243 11.69970703 12.2253418 C12.23144063 13.61209913 12.76495802 14.99817385 13.30029297 16.38354492 C14.06948357 18.37502078 14.83222484 20.36886369 15.59375 22.36328125 C16.05458984 23.56251221 16.51542969 24.76174316 16.99023438 25.99731445 C18 29 18 29 18 32 C15.69 32 13.38 32 11 32 C9.5393715 29.35261084 9 28.10551666 9 25 C5.37 25 1.74 25 -2 25 C-2.66 27.31 -3.32 29.62 -4 32 C-6.64 32 -9.28 32 -12 32 C-10.75665633 28.35186317 -9.5041005 24.70695162 -8.25 21.0625 C-7.90195313 20.04091797 -7.55390625 19.01933594 -7.1953125 17.96679688 C-5.07805504 11.83067109 -2.76026289 5.87623934 0 0 Z M3 10 C2.01 13.3 1.02 16.6 0 20 C2.31 20 4.62 20 7 20 C6.01 16.7 5.02 13.4 4 10 C3.67 10 3.34 10 3 10 Z " fill="#317D76" transform="translate(235,151)"/>
<path d="M0 0 C2.92971211 1.32291264 3.86827175 2.41948686 6 5 C6.875 8.3125 6.875 8.3125 7 11 C3.6875 11.3125 3.6875 11.3125 0 11 C-1.625 8.5 -1.625 8.5 -3 6 C-5.5 5.25 -5.5 5.25 -8 6 C-10.26239307 8.29479011 -10.95611559 9.65269973 -11.36328125 12.875 C-11.33814453 14.421875 -11.33814453 14.421875 -11.3125 16 C-11.30863281 17.03125 -11.30476563 18.0625 -11.30078125 19.125 C-11.00770713 21.92633186 -10.44101632 23.61170203 -9 26 C-6.36 26 -3.72 26 -1 26 C-0.67 24.35 -0.34 22.7 0 21 C2.31 21 4.62 21 7 21 C6.72301826 24.97007156 6.23315777 26.72389212 3.625 29.8125 C-0.49682175 33.24735146 -3.75510374 33.35558619 -9 33 C-14.22336715 31.15645865 -16.34045212 28.79838428 -19 24 C-19.92244786 17.7124326 -20.31342907 10.44966421 -17.25 4.6875 C-12.58108998 -0.88925364 -6.91529364 -0.96934029 0 0 Z " fill="#377872" transform="translate(383,151)"/>
<path d="M0 0 C2.64 0 5.28 0 8 0 C10.31 6.6 12.62 13.2 15 20 C16.93297598 13.79317274 16.93297598 13.79317274 18.85913086 7.58422852 C19.10026611 6.81522217 19.34140137 6.04621582 19.58984375 5.25390625 C19.83597412 4.46314697 20.08210449 3.6723877 20.33569336 2.85766602 C21 1 21 1 22 0 C24.33297433 -0.04092937 26.66705225 -0.04241723 29 0 C28.43678049 7.05560447 25.88599973 13.34192415 23.4375 19.9375 C23.01275391 21.09830078 22.58800781 22.25910156 22.15039062 23.45507812 C21.10634152 26.3056841 20.05605929 29.15382634 19 32 C16.36 32 13.72 32 11 32 C9.42931142 27.76567272 7.86284151 23.52981835 6.30029297 19.29248047 C5.76792764 17.85064416 5.23440373 16.40923508 4.69970703 14.96826172 C3.93218234 12.8992202 3.1688116 10.82868749 2.40625 8.7578125 C2.16563843 8.11192169 1.92502686 7.46603088 1.67712402 6.80056763 C0 2.22774341 0 2.22774341 0 0 Z " fill="#327C75" transform="translate(292,151)"/>
<path d="M0 0 C2.92971211 1.32291264 3.86827175 2.41948686 6 5 C6.875 8.3125 6.875 8.3125 7 11 C3.6875 11.3125 3.6875 11.3125 0 11 C-1.625 8.5 -1.625 8.5 -3 6 C-5.5 5.25 -5.5 5.25 -8 6 C-10.26239307 8.29479011 -10.95611559 9.65269973 -11.36328125 12.875 C-11.33814453 14.421875 -11.33814453 14.421875 -11.3125 16 C-11.30863281 17.03125 -11.30476563 18.0625 -11.30078125 19.125 C-11.00770713 21.92633186 -10.44101632 23.61170203 -9 26 C-6.36 26 -3.72 26 -1 26 C-0.67 24.35 -0.34 22.7 0 21 C2.31 21 4.62 21 7 21 C6.72301826 24.97007156 6.23315777 26.72389212 3.625 29.8125 C-0.49682175 33.24735146 -3.75510374 33.35558619 -9 33 C-14.22336715 31.15645865 -16.34045212 28.79838428 -19 24 C-19.92244786 17.7124326 -20.31342907 10.44966421 -17.25 4.6875 C-12.58108998 -0.88925364 -6.91529364 -0.96934029 0 0 Z " fill="#337972" transform="translate(451,151)"/>
<path d="M0 0 C2.64 0 5.28 0 8 0 C9.98 3.96 11.96 7.92 14 12 C14.42410156 11.13375 14.84820312 10.2675 15.28515625 9.375 C20.01870708 0.38645513 20.01870708 0.38645513 23.0234375 -0.796875 C24.9375 -0.75 24.9375 -0.75 28 0 C27.24240011 3.49337726 25.82718851 6.29443131 24.1171875 9.43359375 C20.043222 16.96900546 17.73491692 23.25225839 18 32 C15.69 32 13.38 32 11 32 C11.04382813 31.35417969 11.08765625 30.70835937 11.1328125 30.04296875 C11.10397018 19.50109941 6.05450459 11.58861398 0.90209961 2.66723633 C0 1 0 1 0 0 Z " fill="#367A73" transform="translate(463,151)"/>
<path d="M0 0 C5.96859414 0.29842971 9.910719 2.82657742 14 7 C17.78793666 12.67257509 19.02188522 17.15319652 20 24 C14.72 24 9.44 24 4 24 C3.34895833 22.01432292 2.69791667 20.02864583 2.046875 18.04296875 C0.726693 15.46664343 -0.49725434 14.44524749 -3 13 C-5.57873609 12.43015552 -5.57873609 12.43015552 -8.25 12.3125 C-9.14203125 12.24675781 -10.0340625 12.18101563 -10.953125 12.11328125 C-11.62859375 12.07589844 -12.3040625 12.03851563 -13 12 C-13 11.34 -13 10.68 -13 10 C-9.7 9.67 -6.4 9.34 -3 9 C-3 8.34 -3 7.68 -3 7 C-0.03 7.495 -0.03 7.495 3 8 C3.33 8.99 3.66 9.98 4 11 C4.99 10.67 5.98 10.34 7 10 C7 9.34 7 8.68 7 8 C6.01 7.67 5.02 7.34 4 7 C4 6.34 4 5.68 4 5 C4.66 4.67 5.32 4.34 6 4 C4.02 3.34 2.04 2.68 0 2 C0 1.34 0 0.68 0 0 Z " fill="#E95506" transform="translate(307,63)"/>
<path d="M0 0 C1.32 0 2.64 0 4 0 C6.49321851 4.10174659 8.24653864 7.22807805 9 12 C9.63437344 13.6792238 10.29289322 15.35008418 11 17 C11.99 17 12.98 17 14 17 C14.19335938 17.63808594 14.38671875 18.27617188 14.5859375 18.93359375 C14.97652344 20.17302734 14.97652344 20.17302734 15.375 21.4375 C15.63023437 22.26121094 15.88546875 23.08492187 16.1484375 23.93359375 C16.80882227 26.17798016 16.80882227 26.17798016 19 27 C19 27.66 19 28.32 19 29 C14.38 29 9.76 29 5 29 C5 28.01 5 27.02 5 26 C4.34 26 3.68 26 3 26 C0.97092833 22.6853333 0.87257867 20.5684021 1.375 16.75 C1.54128906 15.41195312 1.54128906 15.41195312 1.7109375 14.046875 C1.85402344 13.03367187 1.85402344 13.03367187 2 12 C1.34 11.67 0.68 11.34 0 11 C-0.33 11.99 -0.66 12.98 -1 14 C-1.66 13.67 -2.32 13.34 -3 13 C-3 11.35 -3 9.7 -3 8 C-3.66 7.67 -4.32 7.34 -5 7 C-5.625 4.9375 -5.625 4.9375 -6 3 C-5.195625 2.690625 -4.39125 2.38125 -3.5625 2.0625 C-1.10919595 1.23664655 -1.10919595 1.23664655 0 0 Z " fill="#E95609" transform="translate(434,102)"/>
<path d="M0 0 C0.33 1.32 0.66 2.64 1 4 C0.01 4.33 -0.98 4.66 -2 5 C-2 5.99 -2 6.98 -2 8 C-2.66 8 -3.32 8 -4 8 C-4 8.99 -4 9.98 -4 11 C-4.99 11.495 -4.99 11.495 -6 12 C-5.11223998 15.69900008 -4.05418136 19.34550461 -3 23 C-3.99 23.33 -4.98 23.66 -6 24 C-5.4740625 24.8353125 -5.4740625 24.8353125 -4.9375 25.6875 C-3.74146448 28.63772095 -3.93041365 30.02043802 -5 33 C-8.20689655 36 -8.20689655 36 -11 36 C-11 35.01 -11 34.02 -11 33 C-10.01 32.505 -10.01 32.505 -9 32 C-9 31.01 -9 30.02 -9 29 C-11.44496043 27.28288757 -11.44496043 27.28288757 -14 26 C-13.67 28.31 -13.34 30.62 -13 33 C-14.32 33 -15.64 33 -17 33 C-17 33.99 -17 34.98 -17 36 C-18.32 35.67 -19.64 35.34 -21 35 C-21.2475 35.969375 -21.495 36.93875 -21.75 37.9375 C-22.1625 38.948125 -22.575 39.95875 -23 41 C-25.125 41.875 -25.125 41.875 -27 42 C-25.50524541 37.73835927 -23.28622181 34.19922395 -20.75 30.5 C-19.86033086 29.18513003 -18.97103081 27.87001027 -18.08203125 26.5546875 C-17.59557129 25.83764648 -17.10911133 25.12060547 -16.60791016 24.38183594 C-14.8134312 21.72363115 -13.03626787 19.05436159 -11.26171875 16.3828125 C-10.6284668 15.42955078 -9.99521484 14.47628906 -9.34277344 13.49414062 C-8.08138093 11.59461669 -6.82030862 9.69488008 -5.55957031 7.79492188 C-4.98174805 6.92673828 -4.40392578 6.05855469 -3.80859375 5.1640625 C-3.29095459 4.38498535 -2.77331543 3.6059082 -2.23999023 2.80322266 C-1 1 -1 1 0 0 Z " fill="#E85611" transform="translate(131,76)"/>
<path d="M0 0 C1.65 0 3.3 0 5 0 C5.33 0.99 5.66 1.98 6 3 C6.99 3.33 7.98 3.66 9 4 C10.16796875 6.109375 10.16796875 6.109375 11.1875 8.75 C11.53167969 9.61109375 11.87585938 10.4721875 12.23046875 11.359375 C13 14 13 14 13 19 C8.38 19 3.76 19 -1 19 C-5.41964286 8.95535714 -5.41964286 8.95535714 -4 4 C-2.68 3.67 -1.36 3.34 0 3 C0 2.01 0 1.02 0 0 Z " fill="#E9560C" transform="translate(378,112)"/>
<path d="M0 0 C5.61 0 11.22 0 17 0 C17 3.3 17 6.6 17 10 C13.24956845 10.08087991 9.50087814 10.14044597 5.75 10.1875 C4.15478516 10.22520508 4.15478516 10.22520508 2.52734375 10.26367188 C1.50253906 10.27333984 0.47773438 10.28300781 -0.578125 10.29296875 C-1.52075195 10.3086792 -2.46337891 10.32438965 -3.43457031 10.34057617 C-6.42310174 9.94383071 -7.77689217 8.98295729 -10 7 C-9.01 5.02 -8.02 3.04 -7 1 C-6.34 1.33 -5.68 1.66 -5 2 C-4.01 2 -3.02 2 -2 2 C-1.34 2 -0.68 2 0 2 C0 1.34 0 0.68 0 0 Z " fill="#E8560A" transform="translate(486,91)"/>
<path d="M0 0 C3.6143205 2.95717132 4.69721853 6.32451283 5.21484375 10.8984375 C5.10533727 19.31479285 -1.21467226 28.21467226 -7 34 C-9.40234375 34.3828125 -9.40234375 34.3828125 -12 34 C-13.87890625 32.2421875 -13.87890625 32.2421875 -15.5625 29.875 C-16.15289062 29.05644531 -16.74328125 28.23789063 -17.3515625 27.39453125 C-17.89554687 26.60433594 -18.43953125 25.81414062 -19 25 C-19.44085938 24.38511719 -19.88171875 23.77023438 -20.3359375 23.13671875 C-23 19.3295656 -23 19.3295656 -23 17 C-21 17 -21 17 -19.375 18.5 C-18.92125 18.995 -18.4675 19.49 -18 20 C-18.33 18.68 -18.66 17.36 -19 16 C-18.01 16 -17.02 16 -16 16 C-15.896875 17.093125 -15.79375 18.18625 -15.6875 19.3125 C-15.00272798 22.98536808 -14.72080696 23.75237686 -12 26 C-12 26.66 -12 27.32 -12 28 C-11.34 28 -10.68 28 -10 28 C-9.67 29.32 -9.34 30.64 -9 32 C-8.34 32 -7.68 32 -7 32 C-7 31.34 -7 30.68 -7 30 C-6.34 30 -5.68 30 -5 30 C-4.87625 29.443125 -4.7525 28.88625 -4.625 28.3125 C-3.92924316 25.7381997 -3.16814704 23.40119114 -2 21 C-1.01 20.67 -0.02 20.34 1 20 C0.34 18.68 -0.32 17.36 -1 16 C-1.33 17.32 -1.66 18.64 -2 20 C-3.32 19.67 -4.64 19.34 -6 19 C-6 19.66 -6 20.32 -6 21 C-6.66 21 -7.32 21 -8 21 C-7.75 18.625 -7.75 18.625 -7 16 C-6.34 15.71125 -5.68 15.4225 -5 15.125 C-4.34 14.75375 -3.68 14.3825 -3 14 C-2.18129815 10.43793339 -2.18129815 10.43793339 -2 7 C-1.34 7 -0.68 7 0 7 C0 8.32 0 9.64 0 11 C0.66 10.67 1.32 10.34 2 10 C2 8.35 2 6.7 2 5 C1.34 5 0.68 5 0 5 C-0.5625 3.0625 -0.5625 3.0625 -1 1 C-0.67 0.67 -0.34 0.34 0 0 Z " fill="#E6560F" transform="translate(100,50)"/>
<path d="M0 0 C0.639375 0.33 1.27875 0.66 1.9375 1 C2.2675 0.34 2.5975 -0.32 2.9375 -1 C3.5975 -1 4.2575 -1 4.9375 -1 C5.22625 -0.360625 5.515 0.27875 5.8125 0.9375 C6.76573451 3.15206079 6.76573451 3.15206079 8.9375 4 C8.9375 5.32 8.9375 6.64 8.9375 8 C7.9475 8.33 6.9575 8.66 5.9375 9 C5.855 9.763125 5.7725 10.52625 5.6875 11.3125 C4.79134206 14.52373261 3.72138975 15.29374499 0.9375 17 C1.2675 14.69 1.5975 12.38 1.9375 10 C0.9475 10 -0.0425 10 -1.0625 10 C-1.2171875 10.804375 -1.2171875 10.804375 -1.375 11.625 C-2.24342697 14.62502044 -3.61870296 17.2379535 -5.0625 20 C-6.3825 19.34 -7.7025 18.68 -9.0625 18 C-9.0625 17.01 -9.0625 16.02 -9.0625 15 C-9.7225 15 -10.3825 15 -11.0625 15 C-11.0625 14.01 -11.0625 13.02 -11.0625 12 C-10.0725 12 -9.0825 12 -8.0625 12 C-7.7325 11.34 -7.4025 10.68 -7.0625 10 C-9.0425 9.34 -11.0225 8.68 -13.0625 8 C-13.0625 7.34 -13.0625 6.68 -13.0625 6 C-11.93070313 6.09539062 -10.79890625 6.19078125 -9.6328125 6.2890625 C-8.15108388 6.40159885 -6.66931055 6.51354758 -5.1875 6.625 C-4.06794922 6.72167969 -4.06794922 6.72167969 -2.92578125 6.8203125 C-0.9754953 6.96087365 0.98219467 6.98759849 2.9375 7 C3.5975 6.34 4.2575 5.68 4.9375 5 C4.29941406 4.93941406 3.66132813 4.87882812 3.00390625 4.81640625 C1.76447266 4.69072266 1.76447266 4.69072266 0.5 4.5625 C-0.32371094 4.48128906 -1.14742187 4.40007812 -1.99609375 4.31640625 C-4.0625 4 -4.0625 4 -5.0625 3 C-6.57719448 2.76807135 -8.10004562 2.58784762 -9.625 2.4375 C-10.45128906 2.35371094 -11.27757812 2.26992187 -12.12890625 2.18359375 C-12.76699219 2.12300781 -13.40507812 2.06242187 -14.0625 2 C-14.0625 1.34 -14.0625 0.68 -14.0625 0 C-9.81147771 -2.12551114 -4.38932977 -1.43325054 0 0 Z " fill="#E95605" transform="translate(157.0625,68)"/>
<path d="M0 0 C0.495 1.485 0.495 1.485 1 3 C-0.43359375 5.69921875 -0.43359375 5.69921875 -2.4375 8.6875 C-3.09621094 9.68136719 -3.75492188 10.67523438 -4.43359375 11.69921875 C-4.95050781 12.45847656 -5.46742188 13.21773437 -6 14 C-6.12246094 13.36578125 -6.24492187 12.7315625 -6.37109375 12.078125 C-6.80696091 9.80283433 -6.80696091 9.80283433 -9.0625 8.75 C-9.701875 8.5025 -10.34125 8.255 -11 8 C-11 7.01 -11 6.02 -11 5 C-11.66 5 -12.32 5 -13 5 C-13.33 5.99 -13.66 6.98 -14 8 C-14.70511719 7.67257813 -15.41023438 7.34515625 -16.13671875 7.0078125 C-19.23867167 5.91599278 -21.54006053 5.79614604 -24.8125 5.875 C-25.78832031 5.89304687 -26.76414063 5.91109375 -27.76953125 5.9296875 C-28.50558594 5.95289062 -29.24164063 5.97609375 -30 6 C-29.67 6.99 -29.34 7.98 -29 9 C-30.32 10.32 -31.64 11.64 -33 13 C-33.66 12.67 -34.32 12.34 -35 12 C-35 11.34 -35 10.68 -35 10 C-36.98 11.32 -38.96 12.64 -41 14 C-38.8039406 8.78612085 -34.9650432 6.44703166 -30 4 C-25.79156435 2.8005273 -21.58522701 2.18158392 -17.25 1.625 C-16.14011719 1.46128906 -15.03023437 1.29757813 -13.88671875 1.12890625 C-9.2190559 0.46049244 -4.72164918 -0.09125516 0 0 Z " fill="#E35712" transform="translate(173,62)"/>
<path d="M0 0 C0 1.98 0 3.96 0 6 C-0.99 6 -1.98 6 -3 6 C-2.67 8.31 -2.34 10.62 -2 13 C-2.66 13 -3.32 13 -4 13 C-4 14.65 -4 16.3 -4 18 C-4.33 16.68 -4.66 15.36 -5 14 C-5.99 15.98 -6.98 17.96 -8 20 C-8.33 19.01 -8.66 18.02 -9 17 C-9.99 17 -10.98 17 -12 17 C-12.309375 15.906875 -12.61875 14.81375 -12.9375 13.6875 C-13.58337897 11.44592006 -14.2623117 9.2130649 -15 7 C-13.57906177 3.57303133 -12.57696334 2.26924956 -9.1875 0.6875 C-6.01419282 0.0030612 -3.23500362 -0.15404779 0 0 Z " fill="#E7560A" transform="translate(265,63)"/>
<path d="M0 0 C0 0.33 0 0.66 0 1 C-1.65 1.33 -3.3 1.66 -5 2 C-5 2.99 -5 3.98 -5 5 C-15.91001698 6.54499151 -15.91001698 6.54499151 -21 4 C-24.10809595 4.59155349 -24.10809595 4.59155349 -27 6 C-27.96877057 8.03243548 -27.96877057 8.03243548 -28 10 C-28.66 10 -29.32 10 -30 10 C-30.33 10.99 -30.66 11.98 -31 13 C-31.66 13 -32.32 13 -33 13 C-33.33 13.66 -33.66 14.32 -34 15 C-36 15 -38 15 -40 15 C-40.33 15.66 -40.66 16.32 -41 17 C-41.99 16.67 -42.98 16.34 -44 16 C-38.55627567 8.30370009 -30.14558363 2.8513223 -21.03515625 0.421875 C-14.07874608 -0.54503915 -7.00340035 -0.20598236 0 0 Z " fill="#E45817" transform="translate(73,32)"/>
<path d="M0 0 C0 0.33 0 0.66 0 1 C-4.95 1.33 -9.9 1.66 -15 2 C-15 2.66 -15 3.32 -15 4 C-17.64 4.99 -20.28 5.98 -23 7 C-22.38125 8.175625 -22.38125 8.175625 -21.75 9.375 C-20.65907032 14.6478268 -22.63699865 18.29827471 -25 23 C-25.66 23.99 -26.32 24.98 -27 26 C-27.66 26 -28.32 26 -29 26 C-29 23.36 -29 20.72 -29 18 C-29.99 18 -30.98 18 -32 18 C-32 20.31 -32 22.62 -32 25 C-32.66 25 -33.32 25 -34 25 C-33.71672044 17.20981211 -30.84571279 12.07847961 -25.515625 6.42578125 C-17.57184855 -0.68517993 -10.2030523 -0.38208379 0 0 Z " fill="#E65806" transform="translate(305,62)"/>
<path d="M0 0 C4.29 0 8.58 0 13 0 C12.25 6.625 12.25 6.625 10 10 C8.33333333 10 6.66666667 10 5 10 C4.21625 10.474375 3.4325 10.94875 2.625 11.4375 C-0.63604017 13.37859534 -3.22990675 13.79055038 -7 14 C-7.99 13.34 -8.98 12.68 -10 12 C-9.21625 11.566875 -8.4325 11.13375 -7.625 10.6875 C-4.78301625 9.10779753 -4.78301625 9.10779753 -3 6 C-2.34 6 -1.68 6 -1 6 C-0.67 4.02 -0.34 2.04 0 0 Z " fill="#E85609" transform="translate(312,109)"/>
<path d="M0 0 C0.66 0 1.32 0 2 0 C2.33 1.98 2.66 3.96 3 6 C2.34 6 1.68 6 1 6 C1.03480469 6.70125 1.06960938 7.4025 1.10546875 8.125 C1.29032983 14.60394075 0.64846109 19.09189449 -2 25 C-2.495 26.4540625 -2.495 26.4540625 -3 27.9375 C-3.495 28.9584375 -3.495 28.9584375 -4 30 C-7 31 -7 31 -9 31 C-10.62514468 32.45833358 -10.62514468 32.45833358 -12 34 C-9.8298389 26.30040211 -7.15907228 18.84781973 -4.3125 11.375 C-3.89677734 10.27542969 -3.48105469 9.17585938 -3.05273438 8.04296875 C-2.03818089 5.36081585 -1.02055394 2.67987417 0 0 Z " fill="#DF581A" transform="translate(347,80)"/>
<path d="M0 0 C1.36125 0.12375 1.36125 0.12375 2.75 0.25 C3.92571451 3.92410785 3.82366746 7.41929183 3.75 11.25 C1.8125 10.5 1.8125 10.5 -0.25 9.25 C-1 7.125 -1 7.125 -1.25 5.25 C-2.24 5.58 -3.23 5.91 -4.25 6.25 C-3.92 7.57 -3.59 8.89 -3.25 10.25 C-5.23 10.91 -7.21 11.57 -9.25 12.25 C-8.92 10.6 -8.59 8.95 -8.25 7.25 C-10.50056722 7.36433363 -12.75046674 7.49186436 -15 7.625 C-16.87945312 7.72941406 -16.87945312 7.72941406 -18.796875 7.8359375 C-21.86631204 8.20399217 -23.72901882 8.51991488 -26.25 10.25 C-27.05528889 12.30000871 -27.05528889 12.30000871 -27.25 14.25 C-28.24 13.92 -29.23 13.59 -30.25 13.25 C-30.9375 11.1875 -30.9375 11.1875 -31.25 9.25 C-30.26 8.92 -29.27 8.59 -28.25 8.25 C-28.25 7.59 -28.25 6.93 -28.25 6.25 C-26.375 5.1875 -26.375 5.1875 -24.25 4.25 C-23.59 4.58 -22.93 4.91 -22.25 5.25 C-19.76627863 5.26454169 -17.3501887 5.20079179 -14.875 5.0625 C-14.20210938 5.04380859 -13.52921875 5.02511719 -12.8359375 5.00585938 C-9.37732784 4.8118232 -7.59420929 4.55813237 -4.9765625 2.21484375 C-3.25 0.25 -3.25 0.25 0 0 Z " fill="#E95606" transform="translate(503.25,62.75)"/>
<path d="M0 0 C0.99 0.33 1.98 0.66 3 1 C3 2.32 3 3.64 3 5 C4.32 5.33 5.64 5.66 7 6 C6.34 7.65 5.68 9.3 5 11 C6.32 10.67 7.64 10.34 9 10 C8.125 14.75 8.125 14.75 7 17 C6.34 17 5.68 17 5 17 C5 17.66 5 18.32 5 19 C0.25 20.125 0.25 20.125 -2 19 C-2.44921875 16.96875 -2.44921875 16.96875 -2.6875 14.5 C-2.77386719 13.6853125 -2.86023438 12.870625 -2.94921875 12.03125 C-2.96597656 11.3609375 -2.98273438 10.690625 -3 10 C-2.67 9.67 -2.34 9.34 -2 9 C-1.79395915 7.67218122 -1.6337041 6.33704105 -1.5 5 C-1.11111111 1.11111111 -1.11111111 1.11111111 0 0 Z " fill="#E85509" transform="translate(279,104)"/>
<path d="M0 0 C1.23492187 -0.01417969 2.46984375 -0.02835937 3.7421875 -0.04296875 C6.93465744 0.17453209 8.4286103 0.63189056 11.125 2.1875 C13.79209069 2.35500414 13.79209069 2.35500414 16.125 2.1875 C16.455 3.5075 16.785 4.8275 17.125 6.1875 C16.135 6.1875 15.145 6.1875 14.125 6.1875 C13.795 6.8475 13.465 7.5075 13.125 8.1875 C11.3959226 8.21475341 9.66671824 8.23400987 7.9375 8.25 C6.49310547 8.26740234 6.49310547 8.26740234 5.01953125 8.28515625 C2.26923487 8.19236622 -0.19979591 7.80861685 -2.875 7.1875 C-2.545 5.8675 -2.215 4.5475 -1.875 3.1875 C-6.33 3.6825 -6.33 3.6825 -10.875 4.1875 C-10.215 3.8575 -9.555 3.5275 -8.875 3.1875 C-8.875 2.5275 -8.875 1.8675 -8.875 1.1875 C-5.9336446 -0.2831777 -3.27272595 0.01701001 0 0 Z " fill="#E95502" transform="translate(292.875,122.8125)"/>
<path d="M0 0 C0 0.66 0 1.32 0 2 C-0.66 2 -1.32 2 -2 2 C-1.835 2.598125 -1.67 3.19625 -1.5 3.8125 C-0.94317346 6.2486161 -1 8.51229386 -1 11 C0.670625 11.433125 0.670625 11.433125 2.375 11.875 C6 13 6 13 8 15 C8.0450286 16.66605828 8.03874921 18.33378384 8 20 C8.29749946 21.67343448 8.62127066 23.34305915 9 25 C8.34 24.67 7.68 24.34 7 24 C7 23.34 7 22.68 7 22 C6.01 22 5.02 22 4 22 C4 19.69 4 17.38 4 15 C1.69 15.33 -0.62 15.66 -3 16 C-3.33 15.01 -3.66 14.02 -4 13 C-4.66 12.67 -5.32 12.34 -6 12 C-6 10.68 -6 9.36 -6 8 C-6.66 7.67 -7.32 7.34 -8 7 C-8.28875 7.598125 -8.5775 8.19625 -8.875 8.8125 C-10 11 -10 11 -12 14 C-12.375 10.75 -12.375 10.75 -12 7 C-9.25 4.75 -9.25 4.75 -6 3 C-5.2575 2.4225 -4.515 1.845 -3.75 1.25 C-2 0 -2 0 0 0 Z " fill="#E85605" transform="translate(370,73)"/>
<path d="M0 0 C-0.33 8.91 -0.66 17.82 -1 27 C1.475 27.99 1.475 27.99 4 29 C4 29.33 4 29.66 4 30 C1.36 30 -1.28 30 -4 30 C-4.8410478 26.3535194 -5.11764968 23.00049093 -5.09765625 19.26171875 C-5.09443359 18.19501953 -5.09121094 17.12832031 -5.08789062 16.02929688 C-5.07951172 14.92650391 -5.07113281 13.82371094 -5.0625 12.6875 C-5.05798828 11.56537109 -5.05347656 10.44324219 -5.04882812 9.28710938 C-5.03707313 6.5246849 -5.02064077 3.76237002 -5 1 C-3 0 -3 0 0 0 Z " fill="#2A8178" transform="translate(268,153)"/>
<path d="M0 0 C4.17202222 3.87402064 6.94789024 8.3560785 10 13.125 C12.62989948 16.91651589 12.62989948 16.91651589 16 20 C18.54289138 20.35999339 18.54289138 20.35999339 21 19 C22.81992665 16.82129607 24.30854505 14.81229742 25.8125 12.4375 C26.42254883 11.51420898 26.42254883 11.51420898 27.04492188 10.57226562 C28.0433873 9.05694751 29.02353265 7.52958612 30 6 C31.35715268 8.71430536 30.77445827 10.11338282 30 13 C28 16 28 16 25 17 C24.4225 18.010625 23.845 19.02125 23.25 20.0625 C22.13625 21.5165625 22.13625 21.5165625 21 23 C17.25 23.375 17.25 23.375 14 23 C14 22.34 14 21.68 14 21 C13.34 21 12.68 21 12 21 C12 20.34 12 19.68 12 19 C11.01 18.67 10.02 18.34 9 18 C8.31867549 16.33927151 7.65257873 14.672233 7 13 C6.01 12.34 5.02 11.68 4 11 C4.33 12.32 4.66 13.64 5 15 C3.125 14.8125 3.125 14.8125 1 14 C-0.25 11.4375 -0.25 11.4375 -1 9 C-0.01 9 0.98 9 2 9 C2 7.68 2 6.36 2 5 C1.34 4.67 0.68 4.34 0 4 C0 2.68 0 1.36 0 0 Z " fill="#DA5822" transform="translate(73,112)"/>
<path d="M0 0 C0.28875 0.598125 0.5775 1.19625 0.875 1.8125 C2.04742026 4.19327792 2.04742026 4.19327792 4 7 C4.99 6.34 5.98 5.68 7 5 C7 6.98 7 8.96 7 11 C2.25 12.125 2.25 12.125 0 11 C-0.18175781 11.85464844 -0.36351562 12.70929688 -0.55078125 13.58984375 C-0.80214844 14.69457031 -1.05351562 15.79929687 -1.3125 16.9375 C-1.55613281 18.03964844 -1.79976562 19.14179687 -2.05078125 20.27734375 C-2.36402344 21.17582031 -2.67726562 22.07429688 -3 23 C-3.99 23.33 -4.98 23.66 -6 24 C-6.33 24.99 -6.66 25.98 -7 27 C-7.66 26.67 -8.32 26.34 -9 26 C-8.67 24.68 -8.34 23.36 -8 22 C-7.34 22 -6.68 22 -6 22 C-6 20.35 -6 18.7 -6 17 C-6.66 16.67 -7.32 16.34 -8 16 C-7.53722656 15.61972656 -7.07445312 15.23945312 -6.59765625 14.84765625 C-4.55304774 12.483109 -4.14363614 10.46783281 -3.4375 7.4375 C-2.20833333 2.20833333 -2.20833333 2.20833333 0 0 Z " fill="#E85605" transform="translate(247,85)"/>
<path d="M0 0 C0.66 0 1.32 0 2 0 C2.2475 1.0725 2.495 2.145 2.75 3.25 C4.02449537 7.07348612 5.04517689 8.41452978 8 11 C8.99 12.485 8.99 12.485 10 14 C12.70143167 16.89538702 12.70143167 16.89538702 16 19 C16.40729228 21.32156597 16.74438677 23.6568787 17 26 C17.66 26 18.32 26 19 26 C19.33 27.65 19.66 29.3 20 31 C21.98 30.34 23.96 29.68 26 29 C25.37240135 31.92879371 24.41377341 34.36095629 23 37 C24.485 36.505 24.485 36.505 26 36 C25.67 37.65 25.34 39.3 25 41 C21.28792813 37.65235528 18.92651793 33.92357942 16.375 29.6875 C13.72117574 25.33813513 11.05027136 21.02160108 8.16015625 16.82421875 C7.70398926 16.16010986 7.24782227 15.49600098 6.77783203 14.81176758 C5.90583869 13.55174514 5.02569366 12.2973122 4.13623047 11.04956055 C1.60627571 7.3789177 0.38536086 4.4485517 0 0 Z M12 15 C12.66 15 13.32 15 14 15 C14 15.66 14 16.32 14 17 C13.34 17 12.68 17 12 17 C12 16.34 12 15.68 12 15 Z " fill="#E1591A" transform="translate(20,81)"/>
<path d="M0 0 C2.125 0.9375 2.125 0.9375 4 2 C3.125 7.75 3.125 7.75 2 10 C6.62 10 11.24 10 16 10 C16 10.99 16 11.98 16 13 C11.05 12.67 6.1 12.34 1 12 C1.66 13.65 2.32 15.3 3 17 C1.02 17 -0.96 17 -3 17 C-2.979375 15.948125 -2.95875 14.89625 -2.9375 13.8125 C-2.86358804 10.15917629 -2.86358804 10.15917629 -3.625 7.3125 C-4.08381983 4.48311107 -3.5904649 3.34384301 -2 1 C-1.34 0.67 -0.68 0.34 0 0 Z " fill="#E45818" transform="translate(352,95)"/>
<path d="M0 0 C1.65 0.33 3.3 0.66 5 1 C4.195625 1.61875 3.39125 2.2375 2.5625 2.875 C-0.03874519 4.74164041 -0.03874519 4.74164041 -1 7 C-1.02951214 8.91065974 -1.02951214 8.91065974 -0.84375 11.0625 C-0.79089844 11.85914063 -0.73804688 12.65578125 -0.68359375 13.4765625 C-0.62300781 14.30929688 -0.56242187 15.14203125 -0.5 16 C-0.3802833 17.6454679 -0.26546381 19.29130164 -0.15625 20.9375 C-0.07600586 22.03384766 -0.07600586 22.03384766 0.00585938 23.15234375 C0 25 0 25 -1 27 C-1.66 27 -2.32 27 -3 27 C-3.309375 25.906875 -3.61875 24.81375 -3.9375 23.6875 C-4.58337897 21.44592006 -5.2623117 19.2130649 -6 17 C-6.53247988 12.41718134 -6.67448419 8.41810728 -4.125 4.4375 C-3.42375 3.633125 -2.7225 2.82875 -2 2 C-1.34 2 -0.68 2 0 2 C0 1.34 0 0.68 0 0 Z " fill="#2D807A" transform="translate(371,153)"/>
<path d="M0 0 C0.598125 0.226875 1.19625 0.45375 1.8125 0.6875 C1.02875 1.38875 0.245 2.09 -0.5625 2.8125 C-5.83290815 8.58485178 -5.47320507 14.77560162 -5.375 22.1875 C-5.37435547 23.11175781 -5.37371094 24.03601563 -5.37304688 24.98828125 C-5.34296387 29.66117401 -5.14472511 34.09281948 -4.1875 38.6875 C-6.1675 39.1825 -6.1675 39.1825 -8.1875 39.6875 C-8.1875 38.0375 -8.1875 36.3875 -8.1875 34.6875 C-8.8475 34.3575 -9.5075 34.0275 -10.1875 33.6875 C-11.2192435 30.75449331 -11.29540988 28.02537164 -11.25 24.9375 C-11.24097656 24.13828125 -11.23195313 23.3390625 -11.22265625 22.515625 C-11.21105469 21.91234375 -11.19945312 21.3090625 -11.1875 20.6875 C-10.8575 20.6875 -10.5275 20.6875 -10.1875 20.6875 C-9.8575 22.6675 -9.5275 24.6475 -9.1875 26.6875 C-9.00574219 24.84285156 -9.00574219 24.84285156 -8.8203125 22.9609375 C-8.65139705 21.3280882 -8.48210636 19.69527768 -8.3125 18.0625 C-8.23386719 17.25425781 -8.15523438 16.44601563 -8.07421875 15.61328125 C-7.51625511 10.33408679 -6.9644107 5.19132871 -3.8125 0.75 C-2.1875 -0.3125 -2.1875 -0.3125 0 0 Z " fill="#E15913" transform="translate(292.1875,75.3125)"/>
<path d="M0 0 C0.99 0 1.98 0 3 0 C3 4.29 3 8.58 3 13 C-7.23 13 -17.46 13 -28 13 C-28 12.67 -28 12.34 -28 12 C-26.74703125 11.93941406 -25.4940625 11.87882812 -24.203125 11.81640625 C-22.55207276 11.73197744 -20.90103165 11.64733061 -19.25 11.5625 C-18.425 11.52318359 -17.6 11.48386719 -16.75 11.44335938 C-15.95078125 11.40146484 -15.1515625 11.35957031 -14.328125 11.31640625 C-13.5949707 11.27974854 -12.86181641 11.24309082 -12.10644531 11.20532227 C-9.98822395 10.99885215 -8.0480544 10.56867914 -6 10 C-6.66 8.35 -7.32 6.7 -8 5 C-6.35 4.67 -4.7 4.34 -3 4 C-2.71125 4.969375 -2.4225 5.93875 -2.125 6.9375 C-1.35785318 10.10664203 -1.35785318 10.10664203 1 11 C0.67 7.37 0.34 3.74 0 0 Z " fill="#D65928" transform="translate(506,63)"/>
<path d="M0 0 C0.66 0.33 1.32 0.66 2 1 C2.144375 2.11375 2.28875 3.2275 2.4375 4.375 C3.00922087 8.05942339 3.28254602 8.75514671 6 11 C6 11.66 6 12.32 6 13 C6.66 13 7.32 13 8 13 C8.33 14.32 8.66 15.64 9 17 C9.66 17 10.32 17 11 17 C11 16.34 11 15.68 11 15 C11.66 15 12.32 15 13 15 C13.33 13.68 13.66 12.36 14 11 C14.66 11 15.32 11 16 11 C13.90824468 16.95345745 13.90824468 16.95345745 11 19 C8.6171875 19.33203125 8.6171875 19.33203125 6 19 C4.12109375 17.2421875 4.12109375 17.2421875 2.4375 14.875 C1.84710938 14.05644531 1.25671875 13.23789063 0.6484375 12.39453125 C0.10445313 11.60433594 -0.43953125 10.81414062 -1 10 C-1.44085938 9.38511719 -1.88171875 8.77023438 -2.3359375 8.13671875 C-5 4.3295656 -5 4.3295656 -5 2 C-3 2 -3 2 -1.375 3.5 C-0.92125 3.995 -0.4675 4.49 0 5 C-0.2784375 4.0409375 -0.2784375 4.0409375 -0.5625 3.0625 C-0.706875 2.381875 -0.85125 1.70125 -1 1 C-0.67 0.67 -0.34 0.34 0 0 Z " fill="#DE581F" transform="translate(82,65)"/>
<path d="M0 0 C0.99 0.33 1.98 0.66 3 1 C3.99 0.67 4.98 0.34 6 0 C6.66 0.33 7.32 0.66 8 1 C8 1.66 8 2.32 8 3 C7.34 3 6.68 3 6 3 C6.226875 3.515625 6.45375 4.03125 6.6875 4.5625 C7.2322829 8.81180666 4.86164041 12.27671918 3 16 C1.68 15.67 0.36 15.34 -1 15 C-1.02685412 12.68756208 -1.04632841 10.3750373 -1.0625 8.0625 C-1.07410156 6.77472656 -1.08570313 5.48695312 -1.09765625 4.16015625 C-1 1 -1 1 0 0 Z " fill="#EA540B" transform="translate(211,64)"/>
<path d="M0 0 C1.4540625 0.0309375 1.4540625 0.0309375 2.9375 0.0625 C8.9375 13.43143204 8.9375 13.43143204 8.9375 17.0625 C7.2875 16.7325 5.6375 16.4025 3.9375 16.0625 C3.6075 17.0525 3.2775 18.0425 2.9375 19.0625 C2.6075 17.0825 2.2775 15.1025 1.9375 13.0625 C2.9275 12.7325 3.9175 12.4025 4.9375 12.0625 C5.2675 11.4025 5.5975 10.7425 5.9375 10.0625 C5.2775 10.0625 4.6175 10.0625 3.9375 10.0625 C3.2775 7.7525 2.6175 5.4425 1.9375 3.0625 C0.2875 2.7325 -1.3625 2.4025 -3.0625 2.0625 C-3.18625 3.25875 -3.31 4.455 -3.4375 5.6875 C-3.90539409 9.34617181 -4.56899757 12.66063336 -6.0625 16.0625 C-7.0525 16.3925 -8.0425 16.7225 -9.0625 17.0625 C-8.46093776 11.34765876 -6.82052048 0.1391943 0 0 Z " fill="#397771" transform="translate(411.0625,150.9375)"/>
<path d="M0 0 C1.32 0 2.64 0 4 0 C2.37885498 4.79821659 -0.29276759 8.6672859 -3.125 12.8125 C-3.59292969 13.50537109 -4.06085938 14.19824219 -4.54296875 14.91210938 C-5.69112437 16.61091105 -6.84499367 18.30584864 -8 20 C-8.33 19.01 -8.66 18.02 -9 17 C-9.99 17 -10.98 17 -12 17 C-12 15.68 -12 14.36 -12 13 C-11.01 13 -10.02 13 -9 13 C-9 13.66 -9 14.32 -9 15 C-8.01 15 -7.02 15 -6 15 C-6.34786708 13.02463255 -6.34786708 13.02463255 -7 11 C-7.66 10.67 -8.32 10.34 -9 10 C-8.5359375 8.8553125 -8.5359375 8.8553125 -8.0625 7.6875 C-7.32106407 5.81210323 -6.63771783 3.91315348 -6 2 C-5.01 2 -4.02 2 -3 2 C-3 3.98 -3 5.96 -3 8 C-0.37613513 4.93882432 0 4.26826873 0 0 Z " fill="#E55615" transform="translate(162,76)"/>
<path d="M0 0 C1 2 1 2 0.125 4.9375 C-0.24625 5.948125 -0.6175 6.95875 -1 8 C-1.33 8.99 -1.66 9.98 -2 11 C-1.01 10.67 -0.02 10.34 1 10 C0.55635701 14.88007285 -0.47756856 16.69772053 -4 20 C-4.7872678 22.1381966 -4.7872678 22.1381966 -5 24 C-5.99 24 -6.98 24 -8 24 C-7.96727556 15.68799274 -6.15193954 6.15193954 0 0 Z " fill="#E55614" transform="translate(27,50)"/>
<path d="M0 0 C2.31 0 4.62 0 7 0 C7 3.96 7 7.92 7 12 C4.36 12 1.72 12 -1 12 C-0.67 8.04 -0.34 4.08 0 0 Z " fill="#E15A1C" transform="translate(502,119)"/>
<path d="M0 0 C0.99 0 1.98 0 3 0 C1.3518456 5.03382098 -1.60648051 9.0260491 -4.625 13.3125 C-5.140625 14.05306641 -5.65625 14.79363281 -6.1875 15.55664062 C-7.45394726 17.37422697 -8.72485759 19.18850838 -10 21 C-12 18 -12 18 -11.8125 15.5 C-10.93892845 12.81208755 -10.13160111 11.79054493 -8 10 C-7.34 9.34 -6.68 8.68 -6 8 C-5.34 7.67 -4.68 7.34 -4 7 C-4.33 5.68 -4.66 4.36 -5 3 C-4.01 3 -3.02 3 -2 3 C-1.34 2.01 -0.68 1.02 0 0 Z " fill="#DD5A21" transform="translate(150,96)"/>
<path d="M0 0 C2.475 0.99 2.475 0.99 5 2 C4.34 7.28 3.68 12.56 3 18 C1.35 18 -0.3 18 -2 18 C-2.25 10.375 -2.25 10.375 0 7 C-0.80404463 3.8371515 -0.80404463 3.8371515 -2 1 C-1.34 0.67 -0.68 0.34 0 0 Z " fill="#32807B" transform="translate(477,164)"/>
<path d="M0 0 C1 2 1 2 0.5 4.875 C0.03580969 7.77618942 0.05922046 9.28219244 1 12 C-0.32 12 -1.64 12 -3 12 C-3 12.99 -3 13.98 -3 15 C-4.32 14.67 -5.64 14.34 -7 14 C-7.2475 14.969375 -7.495 15.93875 -7.75 16.9375 C-8.1625 17.948125 -8.575 18.95875 -9 20 C-11.125 20.875 -11.125 20.875 -13 21 C-11.38265784 16.23115111 -8.74802081 12.37633749 -5.9375 8.25 C-5.47794922 7.56550781 -5.01839844 6.88101563 -4.54492188 6.17578125 C-1.16919168 1.16919168 -1.16919168 1.16919168 0 0 Z " fill="#E0581C" transform="translate(117,97)"/>
<path d="M0 0 C1.21205531 3.63616593 0.66898648 4.58869753 -0.65234375 8.10546875 C-1.01650391 9.08837891 -1.38066406 10.07128906 -1.75585938 11.08398438 C-2.14580078 12.10814453 -2.53574219 13.13230469 -2.9375 14.1875 C-3.32357422 15.22326172 -3.70964844 16.25902344 -4.10742188 17.32617188 C-5.06342444 19.88731454 -6.02789257 22.44493599 -7 25 C-8.32 24.67 -9.64 24.34 -11 24 C-10.01 22.515 -10.01 22.515 -9 21 C-8.60986284 19.0103005 -8.26797351 17.00980131 -8 15 C-7.01 15 -6.02 15 -5 15 C-5.33 13.02 -5.66 11.04 -6 9 C-6.66 9 -7.32 9 -8 9 C-8 8.01 -8 7.02 -8 6 C-6.35 6 -4.7 6 -3 6 C-2.690625 5.195625 -2.38125 4.39125 -2.0625 3.5625 C-1 1 -1 1 0 0 Z " fill="#DD5925" transform="translate(252,106)"/>
<path d="M0 0 C2.31 0 4.62 0 7 0 C6.9375 2.8125 6.9375 2.8125 6 6 C0.5 9 0.5 9 -3 9 C-3 9.66 -3 10.32 -3 11 C-4.65 11 -6.3 11 -8 11 C-8.33 10.01 -8.66 9.02 -9 8 C-7.88625 7.79375 -6.7725 7.5875 -5.625 7.375 C-1.73400805 6.38371699 -1.73400805 6.38371699 -0.5625 2.875 C-0.376875 1.92625 -0.19125 0.9775 0 0 Z " fill="#2D7C74" transform="translate(451,172)"/>
<path d="M0 0 C3.3636284 5.04544261 5 8.88517363 5 15 C1.7 15 -1.6 15 -5 15 C-4.67 14.01 -4.34 13.02 -4 12 C-3.96045766 9.66700175 -3.95598268 7.33291811 -4 5 C-3.34 5 -2.68 5 -2 5 C-0.14223235 8.13498292 0.20140476 10.37471432 0 14 C0.66 14 1.32 14 2 14 C1.87625 12.700625 1.7525 11.40125 1.625 10.0625 C1.55539062 9.33160156 1.48578125 8.60070312 1.4140625 7.84765625 C1.27742188 7.23792969 1.14078125 6.62820312 1 6 C0.34 5.67 -0.32 5.34 -1 5 C-1.625 2.9375 -1.625 2.9375 -2 1 C-1.34 0.67 -0.68 0.34 0 0 Z " fill="#E75506" transform="translate(386,116)"/>
<path d="M0 0 C2.31 0 4.62 0 7 0 C6.43678049 7.05560447 3.88599973 13.34192415 1.4375 19.9375 C1.01275391 21.09830078 0.58800781 22.25910156 0.15039062 23.45507812 C-0.89365848 26.3056841 -1.94394071 29.15382634 -3 32 C-4.0625 30.1875 -4.0625 30.1875 -5 28 C-4.505 26.515 -4.505 26.515 -4 25 C-3.34 25 -2.68 25 -2 25 C-1.94392578 24.11248047 -1.94392578 24.11248047 -1.88671875 23.20703125 C-1.47438501 18.25094134 -0.74066078 15.2164012 2 11 C3.112691 8.03450227 4.07005739 5.02725999 5 2 C3.35 2.66 1.7 3.32 0 4 C0 2.68 0 1.36 0 0 Z " fill="#3D7671" transform="translate(314,151)"/>
<path d="M0 0 C0.78375 0.66 1.5675 1.32 2.375 2 C6.61783635 4.85886354 11.06676661 4.4965796 16 4 C17.34072558 3.69776864 18.67770993 3.37475041 20 3 C18 6 18 6 15.875 6.6875 C12.22010878 7.08477078 8.67638613 7.06231163 5 7 C5 6.34 5 5.68 5 5 C3.35 5 1.7 5 0 5 C-0.2475 5.5775 -0.495 6.155 -0.75 6.75 C-2.16683317 9.3002997 -3.87627537 11.01785701 -6 13 C-9.875 11.25 -9.875 11.25 -11 9 C-8.69 9 -6.38 9 -4 9 C-4 8.34 -4 7.68 -4 7 C-3.34 7 -2.68 7 -2 7 C-1.34 4.69 -0.68 2.38 0 0 Z " fill="#D75A27" transform="translate(288,114)"/>
<path d="M0 0 C2.475 0.99 2.475 0.99 5 2 C5 3.65 5 5.3 5 7 C5.66 7 6.32 7 7 7 C7.33 6.34 7.66 5.68 8 5 C8.99 5.33 9.98 5.66 11 6 C10.91621094 6.67546875 10.83242188 7.3509375 10.74609375 8.046875 C10.64425781 8.93890625 10.54242188 9.8309375 10.4375 10.75 C10.33308594 11.63171875 10.22867187 12.5134375 10.12109375 13.421875 C10.00543324 15.88432451 10.26361305 17.66538064 11 20 C11.66 20 12.32 20 13 20 C13 20.99 13 21.98 13 23 C12.34 23 11.68 23 11 23 C9.16345631 19.35577513 7.33130428 15.70936024 5.5 12.0625 C4.71302734 10.50112305 4.71302734 10.50112305 3.91015625 8.90820312 C3.16572266 7.42416992 3.16572266 7.42416992 2.40625 5.91015625 C1.94541016 4.99371338 1.48457031 4.07727051 1.00976562 3.13305664 C0 1 0 1 0 0 Z " fill="#D45D28" transform="translate(426,108)"/>
<path d="M0 0 C0.99 0.33 1.98 0.66 3 1 C2.34 1 1.68 1 1 1 C1.86385092 2.72770183 2.72777551 4.45536685 3.59204102 6.18286133 C4.32429969 7.64819466 5.05525037 9.11418234 5.78491211 10.58081055 C7.3876013 13.79866261 9.00205663 17.00389803 10.6796875 20.18359375 C11.13601563 21.05113281 11.59234375 21.91867188 12.0625 22.8125 C12.46597656 23.56144531 12.86945313 24.31039062 13.28515625 25.08203125 C14 27 14 27 13 30 C13 29.34 13 28.68 13 28 C12.01 28.33 11.02 28.66 10 29 C9.24758891 25.34543185 8.59950296 21.68266103 8 18 C7.01 18 6.02 18 5 18 C4.71125 17.38125 4.4225 16.7625 4.125 16.125 C3.06279958 13.86674235 3.06279958 13.86674235 1 12 C-0.14222874 8.00219942 -0.08107875 4.1350163 0 0 Z " fill="#D45F2C" transform="translate(440,101)"/>
<path d="M0 0 C0 0.99 0 1.98 0 3 C7.425 3.99 7.425 3.99 15 5 C15.33 4.01 15.66 3.02 16 2 C18.64 2 21.28 2 24 2 C17.17991567 7.60221213 8.39043901 6.48135061 0 6 C-3.11192645 5.32973892 -5.16493415 4.50432066 -8 3 C-8.33 2.34 -8.66 1.68 -9 1 C-5.846632 0.29925156 -3.27275026 0 0 0 Z " fill="#D85C22" transform="translate(291,126)"/>
<path d="M0 0 C3.82516038 3.46766876 6.45754712 7.45579194 9.25 11.75 C9.70890625 12.44738281 10.1678125 13.14476563 10.640625 13.86328125 C11.76465406 15.57274211 12.88291224 17.28599512 14 19 C13.67 19.66 13.34 20.32 13 21 C12.46890625 20.36191406 11.9378125 19.72382812 11.390625 19.06640625 C10.68421875 18.24011719 9.9778125 17.41382812 9.25 16.5625 C8.20585938 15.32693359 8.20585938 15.32693359 7.140625 14.06640625 C4.90690941 11.910137 3.9054404 11.650566 1 11 C-0.28317892 7.15046324 -0.06643637 4.05261865 0 0 Z " fill="#E35815" transform="translate(59,91)"/>
<path d="M0 0 C2.82587712 2.39843352 3.70189138 4.52160978 4.6875 8.0625 C4.93886719 8.94035156 5.19023437 9.81820312 5.44921875 10.72265625 C6 13 6 13 6 15 C0.72 15 -4.56 15 -10 15 C-10.99 12.03 -11.98 9.06 -13 6 C-12.01 6.33 -11.02 6.66 -10 7 C-9.67 8.98 -9.34 10.96 -9 13 C-3.06 12.505 -3.06 12.505 3 12 C2.34 10.35 1.68 8.7 1 7 C0.44121119 4.5972081 0 2.46440489 0 0 Z " fill="#CD6034" transform="translate(321,72)"/>
<path d="M0 0 C2.95524422 0.70124439 5.45330925 1.98516454 8.07421875 3.4921875 C8.07421875 5.4721875 8.07421875 7.4521875 8.07421875 9.4921875 C6.07421875 6.4921875 6.07421875 6.4921875 6.07421875 4.4921875 C4.49175168 4.41064817 2.90805602 4.35275193 1.32421875 4.3046875 C0.4425 4.26988281 -0.43921875 4.23507813 -1.34765625 4.19921875 C-4.37249708 4.54295066 -5.68161727 5.49446209 -7.92578125 7.4921875 C-8.25578125 5.5121875 -8.58578125 3.5321875 -8.92578125 1.4921875 C-5.49281449 -0.796457 -3.97628751 -0.60269053 0 0 Z " fill="#327D75" transform="translate(445.92578125,151.5078125)"/>
<path d="M0 0 C0.99 0 1.98 0 3 0 C3.22142255 1.95689659 3.4267568 3.91561952 3.625 5.875 C3.74101562 6.96554688 3.85703125 8.05609375 3.9765625 9.1796875 C3.98429687 10.11039063 3.99203125 11.04109375 4 12 C3.34 12.66 2.68 13.32 2 14 C-0.625 13.625 -0.625 13.625 -3 13 C-3.50559908 11.56445975 -4.0042749 10.1264798 -4.5 8.6875 C-4.7784375 7.88699219 -5.056875 7.08648437 -5.34375 6.26171875 C-6 4 -6 4 -6 1 C-5.01 1 -4.02 1 -3 1 C-2.67 4.3 -2.34 7.6 -2 11 C-1.34 11 -0.68 11 0 11 C0.07037402 8.46653542 0.07102638 6.2762137 -0.5625 3.8125 C-1 2 -1 2 0 0 Z " fill="#E55716" transform="translate(379,117)"/>
<path d="M0 0 C0.33 0 0.66 0 1 0 C1.33 3.3 1.66 6.6 2 10 C1.01 10.33 0.02 10.66 -1 11 C-1.309375 11.99 -1.61875 12.98 -1.9375 14 C-2.288125 14.99 -2.63875 15.98 -3 17 C-5.125 17.875 -5.125 17.875 -7 18 C-6.835 17.34 -6.67 16.68 -6.5 16 C-5.87816701 12.26900206 -5.93591074 8.78126622 -6 5 C-5.34 4.67 -4.68 4.34 -4 4 C-3.67 4.66 -3.34 5.32 -3 6 C-0.8614515 3.8614515 -0.57344937 2.86724686 0 0 Z " fill="#E95508" transform="translate(450,80)"/>
<path d="M0 0 C0.66 0.33 1.32 0.66 2 1 C2 1.66 2 2.32 2 3 C3.65 3.33 5.3 3.66 7 4 C7 2.68 7 1.36 7 0 C7.99 0 8.98 0 10 0 C8.61219205 3.89006773 6.7847773 6.96558708 4.375 10.3125 C3.74335937 11.19550781 3.11171875 12.07851562 2.4609375 12.98828125 C1.97882813 13.65214844 1.49671875 14.31601563 1 15 C0.67 14.01 0.34 13.02 0 12 C0.33 11.34 0.66 10.68 1 10 C1.66 10 2.32 10 3 10 C2.67 8.35 2.34 6.7 2 5 C1.34 5 0.68 5 0 5 C0 5.66 0 6.32 0 7 C-0.66 7 -1.32 7 -2 7 C-1.125 1.125 -1.125 1.125 0 0 Z " fill="#E25619" transform="translate(100,161)"/>
<path d="M0 0 C1.1673418 3.5020254 0.79056598 4.29616038 -0.43359375 7.66796875 C-0.75263672 8.56064453 -1.07167969 9.45332031 -1.40039062 10.37304688 C-1.74263672 11.30181641 -2.08488281 12.23058594 -2.4375 13.1875 C-2.77587891 14.12787109 -3.11425781 15.06824219 -3.46289062 16.03710938 C-4.30048809 18.36114742 -5.14645283 20.68178235 -6 23 C-6.22429687 22.08154297 -6.22429687 22.08154297 -6.453125 21.14453125 C-6.8354627 19.64522129 -7.27265315 18.15931944 -7.75 16.6875 C-8.20472213 11.7992371 -5.63956481 7.95934722 -3 4 C-2.34 4 -1.68 4 -1 4 C-0.67 2.68 -0.34 1.36 0 0 Z " fill="#DE5A1D" transform="translate(260,83)"/>
<path d="M0 0 C2.7597916 2.38345638 3.86308961 4.55006503 5 8 C5.1953125 10.89453125 5.1953125 10.89453125 5.125 13.8125 C5.10695313 14.78832031 5.08890625 15.76414062 5.0703125 16.76953125 C5.03550781 17.87361328 5.03550781 17.87361328 5 19 C4.67 19 4.34 19 4 19 C3.67 17.35 3.34 15.7 3 14 C1.68 14.99 0.36 15.98 -1 17 C-1.33 15.02 -1.66 13.04 -2 11 C-0.68 10.34 0.64 9.68 2 9 C1.67 8.2575 1.34 7.515 1 6.75 C0 4 0 4 0 0 Z " fill="#E75710" transform="translate(447,70)"/>
<path d="M0 0 C1.66611905 -0.042721 3.33382885 -0.04063832 5 0 C6.99419019 1.99419019 6.49819394 5.70392043 6.6875 8.4375 C6.74744141 9.13166016 6.80738281 9.82582031 6.86914062 10.54101562 C6.99744934 12.35667181 7.00619809 14.17982636 7 16 C3.90267129 19.09732871 1.44694906 18.9887814 -2.890625 19.09765625 C-4.34378224 19.09105099 -5.79692356 19.07918727 -7.25 19.0625 C-7.99507813 19.05798828 -8.74015625 19.05347656 -9.5078125 19.04882812 C-11.3385764 19.03709246 -13.16929873 19.0191585 -15 19 C-15 18.67 -15 18.34 -15 18 C-13.55367188 17.92652344 -13.55367188 17.92652344 -12.078125 17.8515625 C-10.81484375 17.77679688 -9.5515625 17.70203125 -8.25 17.625 C-6.99703125 17.55539063 -5.7440625 17.48578125 -4.453125 17.4140625 C-1.37746013 17.04526106 0.46398927 16.7111917 3 15 C4.59869331 11.80261338 4.51085495 8.469833 4 5 C2.16343011 2.03268602 2.16343011 2.03268602 0 0 Z " fill="#CF6134" transform="translate(431,76)"/>
<path d="M0 0 C2.97 0.495 2.97 0.495 6 1 C6 1.99 6 2.98 6 4 C5.01 4.495 5.01 4.495 4 5 C4 5.66 4 6.32 4 7 C-0.62 6.34 -5.24 5.68 -10 5 C-10 4.34 -10 3.68 -10 3 C-6.7 2.67 -3.4 2.34 0 2 C0 1.34 0 0.68 0 0 Z " fill="#DF5A18" transform="translate(304,70)"/>
<path d="M0 0 C0.99 0 1.98 0 3 0 C3.66666667 6 4.33333333 12 5 18 C4.34 18 3.68 18 3 18 C3 17.01 3 16.02 3 15 C2.01 14.67 1.02 14.34 0 14 C0 9.38 0 4.76 0 0 Z " fill="#E95603" transform="translate(437,78)"/>
<path d="M0 0 C-2.64 0.66 -5.28 1.32 -8 2 C-7.67 2.99 -7.34 3.98 -7 5 C-8.32 6.32 -9.64 7.64 -11 9 C-11.66 8.67 -12.32 8.34 -13 8 C-13 7.34 -13 6.68 -13 6 C-14.98 7.32 -16.96 8.64 -19 10 C-17.55767936 6.42521604 -15.83879097 4.88918552 -12.625 2.8125 C-11.85414063 2.30332031 -11.08328125 1.79414062 -10.2890625 1.26953125 C-6.22650425 -0.98359406 -4.61726345 -1.15431586 0 0 Z " fill="#D75D23" transform="translate(151,66)"/>
<path d="M0 0 C0.66 0 1.32 0 2 0 C2 1.65 2 3.3 2 5 C2.99 4.67 3.98 4.34 5 4 C5.66 4.33 6.32 4.66 7 5 C6.34 7.64 5.68 10.28 5 13 C1.74475735 9.97727468 -0.61820737 6.74281699 -3 3 C-2.67 2.34 -2.34 1.68 -2 1 C-1.67 1.33 -1.34 1.66 -1 2 C-0.67 1.34 -0.34 0.68 0 0 Z " fill="#E0591F" transform="translate(66,148)"/>
<path d="M0 0 C4.455 0.99 4.455 0.99 9 2 C8.23570339 3.44098611 7.46327445 4.87766054 6.6875 6.3125 C6.04361328 7.51326172 6.04361328 7.51326172 5.38671875 8.73828125 C4.09940446 10.83787272 2.81593292 12.35447721 1 14 C0.75 11.75 0.75 11.75 1 9 C3 6.6875 3 6.6875 5 5 C3.35 5 1.7 5 0 5 C-0.33 4.01 -0.66 3.02 -1 2 C-0.67 1.34 -0.34 0.68 0 0 Z " fill="#DE561C" transform="translate(116,137)"/>
<path d="M0 0 C0.598125 0.226875 1.19625 0.45375 1.8125 0.6875 C1.02875 1.38875 0.245 2.09 -0.5625 2.8125 C-5.70789914 8.44793715 -5.56358218 14.79202531 -5.8125 22.0625 C-5.85117187 22.98933594 -5.88984375 23.91617188 -5.9296875 24.87109375 C-6.02337591 27.1430377 -6.10909348 29.41498596 -6.1875 31.6875 C-6.5175 31.6875 -6.8475 31.6875 -7.1875 31.6875 C-7.2455772 27.60422643 -7.28112249 23.52105917 -7.3125 19.4375 C-7.32925781 18.27863281 -7.34601563 17.11976562 -7.36328125 15.92578125 C-7.36972656 14.81074219 -7.37617188 13.69570312 -7.3828125 12.546875 C-7.39328613 11.52045898 -7.40375977 10.49404297 -7.41455078 9.43652344 C-7.11658037 5.82883871 -5.967415 3.71556977 -3.8125 0.875 C-2.1875 -0.3125 -2.1875 -0.3125 0 0 Z " fill="#D55D30" transform="translate(292.1875,75.3125)"/>
<path d="M0 0 C6.05537521 0.30276876 9.51483458 3.27754038 14 7 C13.67 7.66 13.34 8.32 13 9 C10.36 8.67 7.72 8.34 5 8 C4.67 7.01 4.34 6.02 4 5 C4.66 4.67 5.32 4.34 6 4 C4.02 3.34 2.04 2.68 0 2 C0 1.34 0 0.68 0 0 Z " fill="#D75C25" transform="translate(307,63)"/>
<path d="M0 0 C5.27749285 0.53851968 9.25645564 1.77343836 14 4 C11 5 11 5 7 5 C5.07793678 5.30065793 3.16107706 5.63598532 1.25 6 C-0.22726563 6.2784375 -0.22726563 6.2784375 -1.734375 6.5625 C-2.48203125 6.706875 -3.2296875 6.85125 -4 7 C-3.34 6.21625 -2.68 5.4325 -2 4.625 C0.20201441 2.28487188 0.20201441 2.28487188 0 0 Z " fill="#DD5B1B" transform="translate(73,33)"/>
<path d="M0 0 C2.82619863 2.82619863 3.81363347 6.26200296 5.1875 9.9375 C5.47302734 10.66646484 5.75855469 11.39542969 6.05273438 12.14648438 C8.12105341 17.63683977 8.12105341 17.63683977 7 21 C4.59185923 17.48812804 3.63370592 15.27343092 4 11 C2.35 12.32 0.7 13.64 -1 15 C-1 13.02 -1 11.04 -1 9 C-0.34 9 0.32 9 1 9 C0.67 6.03 0.34 3.06 0 0 Z " fill="#D55F26" transform="translate(377,88)"/>
<path d="M0 0 C0.99 0 1.98 0 3 0 C2.36757331 4.72502701 1.08186437 8.90570197 -0.5625 13.375 C-0.79646484 14.01566406 -1.03042969 14.65632813 -1.27148438 15.31640625 C-1.84299619 16.8793161 -2.42084229 18.43990727 -3 20 C-3.33 20 -3.66 20 -4 20 C-4 17.69 -4 15.38 -4 13 C-3.34 13 -2.68 13 -2 13 C-2.66 10.36 -3.32 7.72 -4 5 C-3.01 5 -2.02 5 -1 5 C-0.67 3.35 -0.34 1.7 0 0 Z " fill="#D75C25" transform="translate(265,63)"/>
<path d="M0 0 C5.28 0 10.56 0 16 0 C14.375 9.625 14.375 9.625 11 13 C11.99 9.04 12.98 5.08 14 1 C9.71 1 5.42 1 1 1 C1 2.98 1 4.96 1 7 C0.01 7.33 -0.98 7.66 -2 8 C-1.34 5.36 -0.68 2.72 0 0 Z " fill="#D65F33" transform="translate(311,108)"/>
<path d="M0 0 C2.37616467 2.37616467 3.04068181 4.35349521 4.1875 7.5 C4.55230469 8.4796875 4.91710937 9.459375 5.29296875 10.46875 C6 13 6 13 5 15 C-0.875 11.375 -0.875 11.375 -2 8 C-1.67 7.01 -1.34 6.02 -1 5 C-0.65179959 3.33637583 -0.31595508 1.67004829 0 0 Z " fill="#DA5A1D" transform="translate(371,72)"/>
<path d="M0 0 C0.66 0 1.32 0 2 0 C0.80943402 4.36540858 -0.30864473 7.25785037 -4 10 C-6.75 10.25 -6.75 10.25 -9 10 C-9 8.68 -9 7.36 -9 6 C-9.66 6 -10.32 6 -11 6 C-11.33 4.68 -11.66 3.36 -12 2 C-11.01 2 -10.02 2 -9 2 C-9 2.99 -9 3.98 -9 5 C-8.34 5 -7.68 5 -7 5 C-7 5.66 -7 6.32 -7 7 C-5.35 6.67 -3.7 6.34 -2 6 C-1.34 4.02 -0.68 2.04 0 0 Z " fill="#DD5820" transform="translate(449,91)"/>
<path d="M0 0 C4.99911924 0.47610659 7.97832683 2.03162219 12 5 C9.03312999 6.64826111 6.34373475 7.44271087 3 8 C3 6.35 3 4.7 3 3 C2.01 3 1.02 3 0 3 C0 2.01 0 1.02 0 0 Z " fill="#D95B1A" transform="translate(435,64)"/>
<path d="M0 0 C1.32 0 2.64 0 4 0 C4 0.66 4 1.32 4 2 C4.99 2.33 5.98 2.66 7 3 C7 4.65 7 6.3 7 8 C5.68 8.33 4.36 8.66 3 9 C-0.22265625 3.7265625 -0.22265625 3.7265625 -1 2 C-0.67 1.34 -0.34 0.68 0 0 Z " fill="#297D74" transform="translate(380,153)"/>
<path d="M0 0 C-0.33 0.66 -0.66 1.32 -1 2 C-0.34 2 0.32 2 1 2 C1 2.99 1 3.98 1 5 C-2.875 3.125 -2.875 3.125 -4 2 C-4.99 2.99 -5.98 3.98 -7 5 C-7.33 4.34 -7.66 3.68 -8 3 C-10.01669827 1.86649466 -10.01669827 1.86649466 -12 1 C-12 0.67 -12 0.34 -12 0 C-10.56666979 -0.39063507 -9.12807321 -0.76198474 -7.6875 -1.125 C-6.88699219 -1.33382812 -6.08648437 -1.54265625 -5.26171875 -1.7578125 C-3 -2 -3 -2 0 0 Z " fill="#E95602" transform="translate(439,95)"/>
<path d="M0 0 C0.66 0 1.32 0 2 0 C2.18451025 11.52164009 2.18451025 11.52164009 1 17 C0.34 16.67 -0.32 16.34 -1 16 C-1.02685095 13.52076199 -1.04676547 11.0418116 -1.0625 8.5625 C-1.07506836 7.50192383 -1.07506836 7.50192383 -1.08789062 6.41992188 C-1.09653588 4.61306441 -1.05220011 2.80612397 -1 1 C-0.67 0.67 -0.34 0.34 0 0 Z " fill="#E75804" transform="translate(283,86)"/>
<path d="M0 0 C1.35715268 2.71430536 0.77445827 4.11338282 0 7 C-2 10 -2 10 -5 11 C-5.78375 11.845625 -6.5675 12.69125 -7.375 13.5625 C-10 16 -10 16 -12.8125 16.3125 C-13.534375 16.209375 -14.25625 16.10625 -15 16 C-14.67 15.34 -14.34 14.68 -14 14 C-13.25363281 13.92910156 -12.50726563 13.85820312 -11.73828125 13.78515625 C-7.73809125 12.63816882 -6.30812249 9.78603702 -4.1875 6.4375 C-3.78080078 5.82197266 -3.37410156 5.20644531 -2.95507812 4.57226562 C-1.9566127 3.05694751 -0.97646735 1.52958612 0 0 Z " fill="#D15D2F" transform="translate(103,118)"/>
<path d="M0 0 C1.32 0 2.64 0 4 0 C3.67 1.98 3.34 3.96 3 6 C2.34 5.67 1.68 5.34 1 5 C0.81824219 5.71027344 0.63648438 6.42054687 0.44921875 7.15234375 C0.19785156 8.07144531 -0.05351562 8.99054688 -0.3125 9.9375 C-0.55613281 10.85402344 -0.79976563 11.77054688 -1.05078125 12.71484375 C-1.36402344 13.46894531 -1.67726563 14.22304687 -2 15 C-2.99 15.33 -3.98 15.66 -5 16 C-3.41078475 10.63904723 -1.81027062 5.29156027 0 0 Z " fill="#D25B2C" transform="translate(353,63)"/>
<path d="M0 0 C1.98 0.66 3.96 1.32 6 2 C6 2.66 6 3.32 6 4 C6.66 4 7.32 4 8 4 C8 4.66 8 5.32 8 6 C8.99 6.33 9.98 6.66 11 7 C6.55129785 7.39253254 3.85756507 6.15305957 0 4 C0 4.66 0 5.32 0 6 C-1.32 5.67 -2.64 5.34 -4 5 C-3.34 4.67 -2.68 4.34 -2 4 C-0.86649466 1.98330173 -0.86649466 1.98330173 0 0 Z " fill="#E95603" transform="translate(288,66)"/>
<path d="M0 0 C0.33 0 0.66 0 1 0 C1.31465522 5.97844919 0.6020798 9.49560042 -2 15 C-2.37708383 16.28516325 -2.73206696 17.57705901 -3.0625 18.875 C-3.371875 19.90625 -3.68125 20.9375 -4 22 C-4.66 22.33 -5.32 22.66 -6 23 C-4.64741104 15.11583017 -2.45600648 7.60646666 0 0 Z " fill="#D65B29" transform="translate(246,78)"/>
<path d="M0 0 C0.66 0 1.32 0 2 0 C2.2475 1.0725 2.495 2.145 2.75 3.25 C4.02449537 7.07348612 5.04517689 8.41452978 8 11 C10.18975773 14.28463659 10.99806563 17.20696275 12 21 C8.93622328 18.11883249 6.59253909 15.15634038 4.3125 11.625 C3.71050781 10.70976563 3.10851562 9.79453125 2.48828125 8.8515625 C0.91649742 5.84000819 0.37147079 3.35809592 0 0 Z " fill="#D35F31" transform="translate(20,81)"/>
<path d="M0 0 C3.14259906 2.57121742 4.1257681 5.06595646 5 9 C4.9594713 12.05485079 4.77327634 15.03785274 4 18 C3.34 18.33 2.68 18.66 2 19 C2 14.38 2 9.76 2 5 C1.34 5 0.68 5 0 5 C-0.5625 3.0625 -0.5625 3.0625 -1 1 C-0.67 0.67 -0.34 0.34 0 0 Z " fill="#D45C2B" transform="translate(100,50)"/>
<path d="M0 0 C0 0.99 0 1.98 0 3 C-3.67410785 4.17571451 -7.16929183 4.07366746 -11 4 C-10.67 2.68 -10.34 1.36 -10 0 C-2.25 -1.125 -2.25 -1.125 0 0 Z " fill="#2B7E76" transform="translate(347,179)"/>
<path d="M0 0 C0.99 0.33 1.98 0.66 3 1 C2.74500159 2.79398884 2.47046186 4.58520875 2.1875 6.375 C2.03667969 7.37273437 1.88585937 8.37046875 1.73046875 9.3984375 C1 12 1 12 -2 14 C-2.85712696 11.60004452 -3.22584094 10.48394488 -2.125 8.125 C-1.75375 7.42375 -1.3825 6.7225 -1 6 C-0.61709538 4.00889599 -0.27395385 2.00899487 0 0 Z " fill="#EA5601" transform="translate(218,76)"/>
<path d="M0 0 C0 0.33 0 0.66 0 1 C-4.95 1.33 -9.9 1.66 -15 2 C-15 2.66 -15 3.32 -15 4 C-16.26839526 4.50615298 -17.53983102 5.00469099 -18.8125 5.5 C-19.87404297 5.91765625 -19.87404297 5.91765625 -20.95703125 6.34375 C-23 7 -23 7 -26 7 C-17.60712179 -0.37555964 -10.85570933 -0.40652448 0 0 Z " fill="#D45E2C" transform="translate(305,62)"/>
<path d="M0 0 C2 2 2 2 2.1953125 3.9453125 C2.13020833 5.96354167 2.06510417 7.98177083 2 10 C1.01 10.33 0.02 10.66 -1 11 C-1.66 10.67 -2.32 10.34 -3 10 C-3 7.69 -3 5.38 -3 3 C-2.01 2.67 -1.02 2.34 0 2 C0 1.34 0 0.68 0 0 Z " fill="#288077" transform="translate(302,161)"/>
<path d="M0 0 C0 2.66666667 0 5.33333333 0 8 C-0.66 8 -1.32 8 -2 8 C-2 8.66 -2 9.32 -2 10 C-2.99 10 -3.98 10 -5 10 C-5 12.31 -5 14.62 -5 17 C-5.66 17 -6.32 17 -7 17 C-6.73876187 9.81595146 -4.29788276 5.67793686 0 0 Z " fill="#D65829" transform="translate(278,70)"/>
<path d="M0 0 C2.78720885 4.18081327 2 8.05118363 2 13 C1.01 13 0.02 13 -1 13 C-2.5635348 9.87293041 -2.39958487 6.42017557 -2 3 C-1.34 2.01 -0.68 1.02 0 0 Z " fill="#E95602" transform="translate(224,77)"/>
<path d="M0 0 C1.72253531 2.58380297 2.68493321 4.57509349 3.7265625 7.44921875 C4.0359375 8.29677734 4.3453125 9.14433594 4.6640625 10.01757812 C4.98117187 10.89865234 5.29828125 11.77972656 5.625 12.6875 C5.94984375 13.58017578 6.2746875 14.47285156 6.609375 15.39257812 C7.40981455 17.59378688 8.20654198 19.79626707 9 22 C8.01 22 7.02 22 6 22 C5.81824219 21.34773438 5.63648438 20.69546875 5.44921875 20.0234375 C4.30860118 16.05759795 3.22038687 12.42444879 1.3125 8.75 C-0.18514728 5.61207237 -0.24533559 3.43469832 0 0 Z " fill="#D35C2E" transform="translate(385,109)"/>
<path d="M0 0 C3.875 1.875 3.875 1.875 5 3 C5.07205511 4.68608966 5.08386068 6.37500659 5.0625 8.0625 C5.05347656 8.98160156 5.04445312 9.90070313 5.03515625 10.84765625 C5.02355469 11.55792969 5.01195312 12.26820312 5 13 C2.4500131 11.72500655 2.34023585 10.81508648 1.375 8.1875 C0.98441406 7.15689453 0.98441406 7.15689453 0.5859375 6.10546875 C0 4 0 4 0 0 Z " fill="#EA5603" transform="translate(225,115)"/>
<path d="M0 0 C2.27130656 0.30904171 4.54203305 0.62234907 6.8125 0.9375 C8.07707031 1.11152344 9.34164062 1.28554688 10.64453125 1.46484375 C14 2 14 2 17 3 C17.33 3.99 17.66 4.98 18 6 C17.47792969 5.76023437 16.95585938 5.52046875 16.41796875 5.2734375 C9.76857311 2.59504696 4.8489001 3.22056614 -2 5 C-1.34 3.35 -0.68 1.7 0 0 Z " fill="#D55A29" transform="translate(56,58)"/>
<path d="M0 0 C3 1 3 1 4.25 2.8125 C5.11637742 5.33943414 4.88492145 6.52221994 4 9 C2.68 9 1.36 9 0 9 C0 6.03 0 3.06 0 0 Z " fill="#278278" transform="translate(469,154)"/>
<path d="M0 0 C0.33 0.99 0.66 1.98 1 3 C-0.4375 5.6875 -0.4375 5.6875 -2 8 C-1.01 7.67 -0.02 7.34 1 7 C0.67 8.65 0.34 10.3 0 12 C-2.66735273 9.51047079 -4.55746343 7.36591866 -6 4 C-4.02 2.68 -2.04 1.36 0 0 Z " fill="#E0551C" transform="translate(45,110)"/>
<path d="M0 0 C0.66 0 1.32 0 2 0 C3.42258812 3.82320557 4.24042276 6.91281305 4 11 C2.02 9.68 0.04 8.36 -2 7 C-1.125 1.125 -1.125 1.125 0 0 Z " fill="#EC5506" transform="translate(379,99)"/>
<path d="M0 0 C0.99 0.33 1.98 0.66 3 1 C1.02 3.97 -0.96 6.94 -3 10 C-3.33 9.01 -3.66 8.02 -4 7 C-4.99 7 -5.98 7 -7 7 C-7 5.68 -7 4.36 -7 3 C-6.01 3 -5.02 3 -4 3 C-4 3.66 -4 4.32 -4 5 C-3.01 5 -2.02 5 -1 5 C-0.67 3.35 -0.34 1.7 0 0 Z " fill="#D85924" transform="translate(157,86)"/>
<path d="M0 0 C2.05078125 0.03255208 4.1015625 0.06510417 6.15234375 0.09765625 C5.55421875 0.38640625 4.95609375 0.67515625 4.33984375 0.97265625 C-0.22689356 3.32126401 -1.41795625 4.92682178 -3.03515625 9.72265625 C-3.55142578 11.22699219 -3.55142578 11.22699219 -4.078125 12.76171875 C-4.33207031 13.53257813 -4.58601562 14.3034375 -4.84765625 15.09765625 C-6.07654275 11.58304087 -5.60095474 9.41409238 -4.47265625 5.91015625 C-4.19679687 5.02972656 -3.9209375 4.14929688 -3.63671875 3.2421875 C-2.49225011 0.13172569 -2.49225011 0.13172569 0 0 Z " fill="#DA5A24" transform="translate(252.84765625,62.90234375)"/>
<path d="M0 0 C0.33 0 0.66 0 1 0 C0.9071875 1.670625 0.9071875 1.670625 0.8125 3.375 C0.874375 4.57125 0.93625 5.7675 1 7 C1.99 7.66 2.98 8.32 4 9 C4 7.68 4 6.36 4 5 C4.66 5 5.32 5 6 5 C5.67 6.65 5.34 8.3 5 10 C2.36 10 -0.28 10 -3 10 C-2.01 6.7 -1.02 3.4 0 0 Z " fill="#37736D" transform="translate(399,173)"/>
<path d="M0 0 C1.65 0 3.3 0 5 0 C4.34 1.98 3.68 3.96 3 6 C0.69 6 -1.62 6 -4 6 C-4 5.34 -4 4.68 -4 4 C-3.34 4 -2.68 4 -2 4 C-1.34 2.68 -0.68 1.36 0 0 Z " fill="#367C77" transform="translate(405,164)"/>
<path d="M0 0 C2.31 0 4.62 0 7 0 C7 0.99 7 1.98 7 3 C4.69 3 2.38 3 0 3 C0 4.98 0 6.96 0 9 C-0.99 9 -1.98 9 -3 9 C-2.01 6.03 -1.02 3.06 0 0 Z " fill="#3F7670" transform="translate(235,151)"/>
<path d="M0 0 C3.125 -0.1875 3.125 -0.1875 6 0 C6.66 1.65 7.32 3.3 8 5 C6.68 5.33 5.36 5.66 4 6 C4 5.01 4 4.02 4 3 C2.02 3 0.04 3 -2 3 C-1.34 2.01 -0.68 1.02 0 0 Z " fill="#EB5502" transform="translate(294,63)"/>
<path d="M0 0 C0 0.66 0 1.32 0 2 C-1.74468372 2.70088156 -3.49601161 3.38524009 -5.25 4.0625 C-6.22453125 4.44535156 -7.1990625 4.82820313 -8.203125 5.22265625 C-11.04007395 6.01113787 -12.29409552 6.02437812 -15 5 C-13.730447 4.35165346 -12.45930294 3.70642185 -11.1875 3.0625 C-10.47980469 2.70285156 -9.77210937 2.34320313 -9.04296875 1.97265625 C-5.75434298 0.40694341 -3.71199411 0 0 0 Z " fill="#D6602C" transform="translate(55,33)"/>
<path d="M0 0 C0 0.33 0 0.66 0 1 C-1.093125 1.28875 -2.18625 1.5775 -3.3125 1.875 C-7.04013845 2.81893204 -7.04013845 2.81893204 -10 5 C-10.33 3.02 -10.66 1.04 -11 -1 C-6.70700357 -2.26264601 -4.12168689 -1.62950412 0 0 Z " fill="#268077" transform="translate(448,154)"/>
<path d="M0 0 C0.93134261 2.52143975 1.16007332 3.61526236 0.109375 6.140625 C-0.33921875 6.83671875 -0.7878125 7.5328125 -1.25 8.25 C-1.68828125 8.95640625 -2.1265625 9.6628125 -2.578125 10.390625 C-3.04734375 10.92171875 -3.5165625 11.4528125 -4 12 C-4.99 12 -5.98 12 -7 12 C-5.44298069 7.32894208 -2.91552627 3.91294315 0 0 Z " fill="#D85E2D" transform="translate(111,106)"/>
<path d="M0 0 C2.37599719 3.56399578 3.15731805 7.08381174 4.125 11.1875 C4.39763672 12.31188477 4.39763672 12.31188477 4.67578125 13.45898438 C5.12251686 15.30470781 5.5619694 17.15219132 6 19 C5.34 19 4.68 19 4 19 C2.57741188 15.17679443 1.75957724 12.08718695 2 8 C1.34 8 0.68 8 0 8 C0 5.36 0 2.72 0 0 Z " fill="#D35C2A" transform="translate(227,81)"/>
<path d="M0 0 C0.33 0 0.66 0 1 0 C1.08142927 1.7492214 1.13938541 3.49954542 1.1875 5.25 C1.23970703 6.71179688 1.23970703 6.71179688 1.29296875 8.203125 C1 11 1 11 -2 15 C-2 11.37 -2 7.74 -2 4 C-1.34 4 -0.68 4 0 4 C0 2.68 0 1.36 0 0 Z " fill="#E95512" transform="translate(273,83)"/>
<path d="M0 0 C0 1.98 0 3.96 0 6 C-0.99 5.34 -1.98 4.68 -3 4 C-3 3.01 -3 2.02 -3 1 C-3.928125 1.99 -3.928125 1.99 -4.875 3 C-7 5 -7 5 -9 5 C-9 3.68 -9 2.36 -9 1 C-5.8035914 -0.06546953 -3.34252724 -0.07427838 0 0 Z " fill="#EB5603" transform="translate(265,63)"/>
<path d="M0 0 C2.38125464 2.38125464 3.00186241 4.33857567 4.125 7.5 C4.47820312 8.4796875 4.83140625 9.459375 5.1953125 10.46875 C6 13 6 13 6 15 C4.02 15 2.04 15 0 15 C0.66 14.34 1.32 13.68 2 13 C2.66 13.33 3.32 13.66 4 14 C3.566875 13.23816406 3.566875 13.23816406 3.125 12.4609375 C0.78485506 8.12191875 -0.50606482 5.06064817 0 0 Z " fill="#36736D" transform="translate(420,168)"/>
<path d="M0 0 C2.475 0.99 2.475 0.99 5 2 C4.67 2.99 4.34 3.98 4 5 C4 5.99 4 6.98 4 8 C2.3372974 5.32521756 1.00016187 3.0004856 0 0 Z M-5 5 C-4.67 5.66 -4.34 6.32 -4 7 C-1.69 7 0.62 7 3 7 C2.67 7.66 2.34 8.32 2 9 C-0.875 9.1875 -0.875 9.1875 -4 9 C-4.66 8.01 -5.32 7.02 -6 6 C-5.67 5.67 -5.34 5.34 -5 5 Z " fill="#317670" transform="translate(239,164)"/>
<path d="M0 0 C4.62 0 9.24 0 14 0 C14 0.99 14 1.98 14 3 C11.8535247 2.88655624 9.70779408 2.75893655 7.5625 2.625 C6.36753906 2.55539063 5.17257812 2.48578125 3.94140625 2.4140625 C2.97074219 2.27742188 2.00007813 2.14078125 1 2 C0.67 1.34 0.34 0.68 0 0 Z " fill="#D46239" transform="translate(354,105)"/>
<path d="M0 0 C0.33 1.32 0.66 2.64 1 4 C0.01 4.33 -0.98 4.66 -2 5 C-2 5.99 -2 6.98 -2 8 C-2.66 8 -3.32 8 -4 8 C-4 8.99 -4 9.98 -4 11 C-5.98 11.99 -5.98 11.99 -8 13 C-6.40956621 7.91061189 -3.2553049 4.12543357 0 0 Z " fill="#CD5F33" transform="translate(131,76)"/>
<path d="M0 0 C1.65 0 3.3 0 5 0 C4.01 0.33 3.02 0.66 2 1 C2.185625 1.598125 2.37125 2.19625 2.5625 2.8125 C3 5 3 5 2 8 C-0.5625 9.1875 -0.5625 9.1875 -3 10 C-2.01 6.7 -1.02 3.4 0 0 Z " fill="#31817A" transform="translate(408,153)"/>
<path d="M0 0 C6 9 6 9 6 12 C4.35 12.33 2.7 12.66 1 13 C1.33 10.69 1.66 8.38 2 6 C1.34 5.67 0.68 5.34 0 5 C0 3.35 0 1.7 0 0 Z " fill="#DA5A28" transform="translate(49,73)"/>
<path d="M0 0 C1 2 1 2 0.375 4.8125 C-1.18131396 8.42031873 -3.09336178 10.3993237 -6 13 C-4.75696561 7.82069003 -3.14512215 4.29833361 0 0 Z " fill="#D46124" transform="translate(27,50)"/>
<path d="M0 0 C1.32 0.33 2.64 0.66 4 1 C4 1.99 4 2.98 4 4 C5.32 4.66 6.64 5.32 8 6 C8 7.65 8 9.3 8 11 C4.32966073 7.72291137 2.30718811 4.28477792 0 0 Z " fill="#D3612D" transform="translate(45,123)"/>
<path d="M0 0 C2.0625 1.75 2.0625 1.75 4 4 C3.75 6.25 3.75 6.25 3 8 C1.68 8.33 0.36 8.66 -1 9 C-0.67 6.03 -0.34 3.06 0 0 Z " fill="#DD5A19" transform="translate(55,85)"/>
<path d="M0 0 C2.7597916 2.38345638 3.86308961 4.55006503 5 8 C5.1953125 10.89453125 5.1953125 10.89453125 5.125 13.8125 C5.10695313 14.78832031 5.08890625 15.76414062 5.0703125 16.76953125 C5.03550781 17.87361328 5.03550781 17.87361328 5 19 C4.67 19 4.34 19 4 19 C3.96261719 18.33613281 3.92523438 17.67226562 3.88671875 16.98828125 C3.49997793 11.79382119 2.97036964 8.39098121 0 4 C0 2.68 0 1.36 0 0 Z " fill="#CB6237" transform="translate(447,70)"/>
<path d="M0 0 C1.1446875 0.2475 1.1446875 0.2475 2.3125 0.5 C5.03596236 1.09145396 5.03596236 1.09145396 8 1 C7.01 3.64 6.02 6.28 5 9 C4.731875 8.401875 4.46375 7.80375 4.1875 7.1875 C3.1106021 4.95672092 3.1106021 4.95672092 1.375 3.375 C0.92125 2.92125 0.4675 2.4675 0 2 C0 1.34 0 0.68 0 0 Z " fill="#29766F" transform="translate(231,160)"/>
<path d="M0 0 C0.33 0.99 0.66 1.98 1 3 C2.65 2.01 4.3 1.02 6 0 C6.33 0.99 6.66 1.98 7 3 C6.67 3.66 6.34 4.32 6 5 C3.67843403 5.40729228 1.3431213 5.74438677 -1 6 C-0.67 4.02 -0.34 2.04 0 0 Z " fill="#DC5B21" transform="translate(330,125)"/>
<path d="M0 0 C3.62528568 -0.20140476 5.86501708 0.14223235 9 2 C9 2.66 9 3.32 9 4 C6.03 3.67 3.06 3.34 0 3 C0 2.01 0 1.02 0 0 Z " fill="#E75613" transform="translate(296,126)"/>
<path d="M0 0 C0.99 0.33 1.98 0.66 3 1 C3.125 7.75 3.125 7.75 2 10 C1.34 10 0.68 10 0 10 C0 6.7 0 3.4 0 0 Z " fill="#E45903" transform="translate(474,115)"/>
<path d="M0 0 C0.66 0.33 1.32 0.66 2 1 C2 2.98 2 4.96 2 7 C1.01 7.495 1.01 7.495 0 8 C-0.33 8.99 -0.66 9.98 -1 11 C-1.66 11 -2.32 11 -3 11 C-2.69217504 9.35328588 -2.37860766 7.70764424 -2.0625 6.0625 C-1.88847656 5.14597656 -1.71445313 4.22945313 -1.53515625 3.28515625 C-1 1 -1 1 0 0 Z " fill="#EC5403" transform="translate(231,101)"/>
<path d="M0 0 C-0.33 0.66 -0.66 1.32 -1 2 C-5.29105809 3.09771253 -8.69211856 2.92311745 -13 2 C-13 1.67 -13 1.34 -13 1 C-8.60563789 0.14256349 -4.47427924 -0.08948558 0 0 Z M-8 3 C-7.67 3.99 -7.34 4.98 -7 6 C-7.99 6.495 -7.99 6.495 -9 7 C-8.67 5.68 -8.34 4.36 -8 3 Z " fill="#D95920" transform="translate(167,63)"/>
<path d="M0 0 C0.66 0.66 1.32 1.32 2 2 C2.99 1.67 3.98 1.34 5 1 C4.34 2.32 3.68 3.64 3 5 C1.68 4.67 0.36 4.34 -1 4 C-1.33 5.32 -1.66 6.64 -2 8 C-2.99 7.67 -3.98 7.34 -5 7 C-3.35 4.69 -1.7 2.38 0 0 Z " fill="#E8520E" transform="translate(339,108)"/>
<path d="M0 0 C0 3.38878512 -0.64361198 4.39757217 -2.4375 7.1875 C-2.88996094 7.90292969 -3.34242188 8.61835937 -3.80859375 9.35546875 C-4.20175781 9.89816406 -4.59492188 10.44085938 -5 11 C-5.33 11 -5.66 11 -6 11 C-6 9.02 -6 7.04 -6 5 C-5.34 5 -4.68 5 -4 5 C-4 4.34 -4 3.68 -4 3 C-2 1.375 -2 1.375 0 0 Z " fill="#D15F31" transform="translate(146,105)"/>
<path d="M0 0 C1.67542976 0.28604898 3.34385343 0.61781233 5 1 C4.67 2.32 4.34 3.64 4 5 C2.68 5 1.36 5 0 5 C-0.5625 3.0625 -0.5625 3.0625 -1 1 C-0.67 0.67 -0.34 0.34 0 0 Z " fill="#E55717" transform="translate(316,77)"/>
<path d="M0 0 C1.32 0 2.64 0 4 0 C4 0.99 4 1.98 4 3 C3.01 3.66 2.02 4.32 1 5 C0.67 5.99 0.34 6.98 0 8 C-0.66 8 -1.32 8 -2 8 C-2.33 7.01 -2.66 6.02 -3 5 C-2.01 4.67 -1.02 4.34 0 4 C0 2.68 0 1.36 0 0 Z " fill="#EA541A" transform="translate(116,128)"/>
<path d="M0 0 C0.99 1.32 1.98 2.64 3 4 C2.67 4.99 2.34 5.98 2 7 C1.34 7 0.68 7 0 7 C-0.99 7.99 -1.98 8.98 -3 10 C-2.01 6.7 -1.02 3.4 0 0 Z " fill="#DA5D1F" transform="translate(334,115)"/>
<path d="M0 0 C3.25524265 3.02272532 5.61820737 6.25718301 8 10 C7.67 10.66 7.34 11.32 7 12 C5.821389 10.76125579 4.65747085 9.5085199 3.5 8.25 C2.8503125 7.55390625 2.200625 6.8578125 1.53125 6.140625 C0 4 0 4 0 0 Z " fill="#CC6030" transform="translate(65,100)"/>
<path d="M0 0 C1.65 0 3.3 0 5 0 C5.33 0.66 5.66 1.32 6 2 C5.06553465 4.03144641 4.06775224 6.03533587 3 8 C1.0549 5.08235 0.54723683 3.37462715 0 0 Z " fill="#DB5C1A" transform="translate(217,98)"/>
<path d="M0 0 C2.33944736 0.28730055 4.6739143 0.61936779 7 1 C6.01 1.495 6.01 1.495 5 2 C5 2.66 5 3.32 5 4 C3.35 4 1.7 4 0 4 C-0.33 3.01 -0.66 2.02 -1 1 C-0.67 0.67 -0.34 0.34 0 0 Z " fill="#1F7F77" transform="translate(443,179)"/>
<path d="M0 0 C-0.3125 1.875 -0.3125 1.875 -1 4 C-1.99 4.66 -2.98 5.32 -4 6 C-4.33 5.01 -4.66 4.02 -5 3 C-5.66 2.67 -6.32 2.34 -7 2 C-4.35261084 0.5393715 -3.10551666 0 0 0 Z " fill="#247A71" transform="translate(319,153)"/>
<path d="M0 0 C1.32 0.33 2.64 0.66 4 1 C4 3.31 4 5.62 4 8 C3.67 7.34 3.34 6.68 3 6 C2.34 6 1.68 6 1 6 C0.67 4.02 0.34 2.04 0 0 Z " fill="#EB540B" transform="translate(376,122)"/>
<path d="M0 0 C0.99 0 1.98 0 3 0 C3.66 3.96 4.32 7.92 5 12 C4.34 12 3.68 12 3 12 C2.49440092 10.56445975 1.9957251 9.1264798 1.5 7.6875 C1.2215625 6.88699219 0.943125 6.08648437 0.65625 5.26171875 C0 3 0 3 0 0 Z " fill="#D36127" transform="translate(373,118)"/>
<path d="M0 0 C0.66 0 1.32 0 2 0 C2 1.98 2 3.96 2 6 C0.02 6.33 -1.96 6.66 -4 7 C-2.68 4.69 -1.36 2.38 0 0 Z " fill="#DD551C" transform="translate(122,89)"/>
<path d="M0 0 C0.99 0.33 1.98 0.66 3 1 C3 3.31 3 5.62 3 8 C2.01 8.33 1.02 8.66 0 9 C0 6.03 0 3.06 0 0 Z " fill="#EA5513" transform="translate(276,79)"/>
<path d="M0 0 C2.29633824 3.44450737 2.54016485 5.93812283 3 10 C2.01 9.34 1.02 8.68 0 8 C-0.99 8.495 -0.99 8.495 -2 9 C-1.41196203 5.97580475 -0.77321882 2.98241547 0 0 Z " fill="#D45C25" transform="translate(224,71)"/>
<path d="M0 0 C0.66 0 1.32 0 2 0 C2 1.65 2 3.3 2 5 C4.97 5.495 4.97 5.495 8 6 C8 6.33 8 6.66 8 7 C5.36 7 2.72 7 0 7 C0 4.69 0 2.38 0 0 Z " fill="#1C7F75" transform="translate(264,176)"/>
<path d="M0 0 C0.99 0.99 1.98 1.98 3 3 C1.9024777 5.99324263 1.32317108 6.84610901 -1.625 8.25 C-2.40875 8.4975 -3.1925 8.745 -4 9 C-3.2884375 7.88625 -3.2884375 7.88625 -2.5625 6.75 C-1.22130673 4.38949985 -0.487688 2.63351523 0 0 Z " fill="#EB5500" transform="translate(27,53)"/>
<path d="M0 0 C2.31 0 4.62 0 7 0 C6.67 1.32 6.34 2.64 6 4 C4.125 3.6875 4.125 3.6875 2 3 C1.34 2.01 0.68 1.02 0 0 Z " fill="#1C8078" transform="translate(400,170)"/>
<path d="M0 0 C0.33 1.32 0.66 2.64 1 4 C0.401875 4.103125 -0.19625 4.20625 -0.8125 4.3125 C-3.28243264 5.08876455 -4.32251235 6.07088921 -6 8 C-5.34 5.69 -4.68 3.38 -4 1 C-2.68 0.67 -1.36 0.34 0 0 Z " fill="#DB5F22" transform="translate(341,106)"/>
<path d="M0 0 C3.08089673 2.77280706 4.68775452 5.06326356 6 9 C5.01 9 4.02 9 3 9 C0 2.25 0 2.25 0 0 Z " fill="#D35D30" transform="translate(59,91)"/>
<path d="M0 0 C1.32 0 2.64 0 4 0 C4 1.98 4 3.96 4 6 C2.68 5.67 1.36 5.34 0 5 C0 3.35 0 1.7 0 0 Z " fill="#E4581D" transform="translate(473,83)"/>
<path d="M0 0 C0.66 0 1.32 0 2 0 C-0.09175532 5.95345745 -0.09175532 5.95345745 -3 8 C-5.6875 8.1875 -5.6875 8.1875 -8 8 C-5 6 -5 6 -3 6 C-3 5.34 -3 4.68 -3 4 C-2.34 4 -1.68 4 -1 4 C-0.67 2.68 -0.34 1.36 0 0 Z " fill="#C96136" transform="translate(96,76)"/>
<path d="M0 0 C-1.31224548 3.93673644 -2.91910327 6.22719294 -6 9 C-6.25 6.75 -6.25 6.75 -6 4 C-2.75675676 0 -2.75675676 0 0 0 Z " fill="#D75C20" transform="translate(172,67)"/>
<path d="M0 0 C0.99 0 1.98 0 3 0 C3.33 1.98 3.66 3.96 4 6 C2.68 6 1.36 6 0 6 C0 4.02 0 2.04 0 0 Z " fill="#248176" transform="translate(475,176)"/>
<path d="M0 0 C1.65 0.33 3.3 0.66 5 1 C3 4 3 4 0.5 4.8125 C-0.7375 4.9053125 -0.7375 4.9053125 -2 5 C-2.66 4.34 -3.32 3.68 -4 3 C-3.01 3 -2.02 3 -1 3 C-0.67 2.01 -0.34 1.02 0 0 Z " fill="#33807C" transform="translate(236,157)"/>
<path d="M0 0 C3.07563891 1.53781946 3.70322574 3.91244223 5 7 C4.67 7.99 4.34 8.98 4 10 C3.13342884 8.90554162 2.28207276 7.79902219 1.4375 6.6875 C0.96183594 6.07261719 0.48617187 5.45773438 -0.00390625 4.82421875 C-0.33261719 4.22222656 -0.66132812 3.62023437 -1 3 C-0.67 2.01 -0.34 1.02 0 0 Z " fill="#D75F29" transform="translate(58,139)"/>
<path d="M0 0 C0 3.99904969 -1.72586967 5.80200422 -4 9 C-4.33 7.68 -4.66 6.36 -5 5 C-4.34 5 -3.68 5 -3 5 C-2.87625 4.360625 -2.7525 3.72125 -2.625 3.0625 C-2.41875 2.381875 -2.2125 1.70125 -2 1 C-1.34 0.67 -0.68 0.34 0 0 Z " fill="#DC5629" transform="translate(130,129)"/>
<path d="M0 0 C0.99 0 1.98 0 3 0 C1.6302836 3.99500618 -0.25722422 6.80009492 -3 10 C-2.67 8.02 -2.34 6.04 -2 4 C-1.34 4 -0.68 4 0 4 C0 2.68 0 1.36 0 0 Z " fill="#CF582A" transform="translate(107,161)"/>
<path d="M0 0 C0.66 0 1.32 0 2 0 C2.66 1.98 3.32 3.96 4 6 C3.34 6 2.68 6 2 6 C2 7.98 2 9.96 2 12 C1.67 12 1.34 12 1 12 C0.67 8.04 0.34 4.08 0 0 Z " fill="#3A7973" transform="translate(278,159)"/>
<path d="M0 0 C1.27875 -0.061875 2.5575 -0.12375 3.875 -0.1875 C4.95394531 -0.23970703 4.95394531 -0.23970703 6.0546875 -0.29296875 C6.69664062 -0.19628906 7.33859375 -0.09960938 8 0 C8.66 0.99 9.32 1.98 10 3 C5.82412255 4.39195915 3.86525224 2.82323219 0 1 C0 0.67 0 0.34 0 0 Z " fill="#377A76" transform="translate(336,151)"/>
<path d="M0 0 C1.98 0 3.96 0 6 0 C5.67 1.65 5.34 3.3 5 5 C4.01 5 3.02 5 2 5 C2 4.01 2 3.02 2 2 C1.34 1.34 0.68 0.68 0 0 Z " fill="#EA5801" transform="translate(496,119)"/>
<path d="M0 0 C1.13643966 3.40931897 0.86747764 4.00335456 -0.4375 7.1875 C-0.86869141 8.26064453 -0.86869141 8.26064453 -1.30859375 9.35546875 C-1.53675781 9.89816406 -1.76492188 10.44085938 -2 11 C-2.33 11 -2.66 11 -3 11 C-3 8.69 -3 6.38 -3 4 C-2.34 4 -1.68 4 -1 4 C-0.67 2.68 -0.34 1.36 0 0 Z " fill="#CF6132" transform="translate(260,83)"/>
<path d="M0 0 C1.32 0 2.64 0 4 0 C2.68775452 3.93673644 1.08089673 6.22719294 -2 9 C-1.505 7.88625 -1.505 7.88625 -1 6.75 C0.22782871 3.86116688 0.22782871 3.86116688 0 0 Z " fill="#D6542B" transform="translate(162,76)"/>
<path d="M0 0 C1.32 0 2.64 0 4 0 C3.67 1.98 3.34 3.96 3 6 C2.01 5.67 1.02 5.34 0 5 C0 3.35 0 1.7 0 0 Z " fill="#DF5C1F" transform="translate(353,63)"/>
<path d="M0 0 C1.32 0.99 2.64 1.98 4 3 C3.34 4.32 2.68 5.64 2 7 C-0.13324818 4.86675182 -0.53238345 3.8992226 -1 1 C-0.67 0.67 -0.34 0.34 0 0 Z " fill="#3D7A73" transform="translate(302,176)"/>
<path d="M0 0 C0.66 0.33 1.32 0.66 2 1 C1.67 2.65 1.34 4.3 1 6 C1.66 6.33 2.32 6.66 3 7 C2.01 7 1.02 7 0 7 C-0.99 5.02 -1.98 3.04 -3 1 C-2.01 0.67 -1.02 0.34 0 0 Z " fill="#DB5517" transform="translate(74,161)"/>
<path d="M0 0 C0.721875 0.391875 1.44375 0.78375 2.1875 1.1875 C1.61 1.31125 1.0325 1.435 0.4375 1.5625 C-1.83585767 2.19398824 -3.7378529 3.07608191 -5.8125 4.1875 C-6.4725 3.5275 -7.1325 2.8675 -7.8125 2.1875 C-3.50480769 -1.0125 -3.50480769 -1.0125 0 0 Z " fill="#1F7C74" transform="translate(412.8125,160.8125)"/>
<path d="M0 0 C2.475 0.99 2.475 0.99 5 2 C5.33 4.31 5.66 6.62 6 9 C2.91910327 6.22719294 1.31224548 3.93673644 0 0 Z " fill="#D5602D" transform="translate(34,105)"/>
<path d="M0 0 C0.99 0.33 1.98 0.66 3 1 C1.625 3.5 1.625 3.5 0 6 C-0.66 6 -1.32 6 -2 6 C-1.125 1.125 -1.125 1.125 0 0 Z " fill="#D7591A" transform="translate(99,70)"/>
<path d="M0 0 C0.66 0 1.32 0 2 0 C2.79953138 3.28696233 3.09658936 4.71023192 2 8 C1.34 8 0.68 8 0 8 C0 5.36 0 2.72 0 0 Z " fill="#E85518" transform="translate(242,116)"/>
<path d="M0 0 C0.33 0.99 0.66 1.98 1 3 C0.34 3.66 -0.32 4.32 -1 5 C-2.32 5 -3.64 5 -5 5 C-5 3 -5 3 -3.625 1.375 C-2 0 -2 0 0 0 Z " fill="#DB5527" transform="translate(437,89)"/>
<path d="M0 0 C0.66 0.33 1.32 0.66 2 1 C2 2.98 2 4.96 2 7 C1.01 7 0.02 7 -1 7 C-0.67 4.69 -0.34 2.38 0 0 Z " fill="#EC5403" transform="translate(466,80)"/>
<path d="M0 0 C0.99 0 1.98 0 3 0 C3 1.32 3 2.64 3 4 C1.35 4 -0.3 4 -2 4 C-1.34 2.68 -0.68 1.36 0 0 Z " fill="#E85617" transform="translate(444,70)"/>
<path d="M0 0 C0.33 0.66 0.66 1.32 1 2 C1.66 2 2.32 2 3 2 C2.67 2.66 2.34 3.32 2 4 C1.34 4 0.68 4 0 4 C-0.33 4.66 -0.66 5.32 -1 6 C-1.99 5.67 -2.98 5.34 -4 5 C-2.68 3.35 -1.36 1.7 0 0 Z " fill="#D55B26" transform="translate(33,43)"/>
</svg>
